<svg width="267" height="45" viewBox="0 0 267 45" fill="none" xmlns="http://www.w3.org/2000/svg">
<path d="M32.3664 34.6098C32.2509 34.9206 32.1354 35.2313 32.0198 35.5227C31.9813 35.6198 31.9428 35.7169 31.9043 35.7946C31.8851 35.8334 31.8465 35.8917 31.8273 35.9305C31.731 36.0665 31.577 36.1636 31.4422 36.1053C31.3459 36.0665 31.2497 35.8917 31.2689 35.7946C31.2882 35.5227 31.3459 35.2508 31.4229 34.9983C31.5192 34.6875 31.654 34.3962 31.7888 34.1243C31.9621 33.7747 31.9621 33.4445 31.8465 33.0755C31.5192 32.1627 31.2111 31.2498 30.8838 30.337C30.7876 30.0651 30.6913 29.7738 30.6143 29.5019C30.4795 29.0163 30.2292 28.6085 29.8634 28.2783C29.382 27.8316 28.9006 27.3849 28.4193 26.9382C28.0535 26.5886 27.5914 26.5109 27.11 26.5109C26.4554 26.5303 25.7815 26.5497 25.1268 26.5497C23.9523 26.5303 22.7778 26.4915 21.584 26.4526C21.3722 26.4526 21.2182 26.5109 21.0834 26.6663C20.6213 27.2489 20.1592 27.851 19.7164 28.4337C19.158 29.1717 18.6189 29.9291 18.0798 30.6672C17.945 30.842 17.8294 31.0168 17.6562 31.1333C17.5406 31.2304 17.3866 31.2887 17.2326 31.3275C17.0593 31.3664 16.9823 31.2887 16.9823 31.0945C16.9823 30.842 17.0978 30.6283 17.2518 30.4147C18.1183 29.2882 19.004 28.1423 19.8704 27.0159C20.0244 26.8216 20.1785 26.6468 20.3132 26.4526C20.4865 26.2196 20.4673 26.0642 20.2362 25.8894C19.8897 25.6369 19.5238 25.4233 19.1772 25.1708C18.9462 25.0154 18.7344 24.8795 18.5033 24.7241C18.3301 24.6075 18.253 24.4327 18.2338 24.2191C18.2145 24.0832 18.2915 23.986 18.4263 24.0055C18.5804 24.0249 18.7344 24.0443 18.8692 24.122C19.312 24.3745 19.7356 24.6658 20.1785 24.9377C20.2555 24.9766 20.3325 25.0348 20.3903 25.0931C20.6983 25.3262 20.7946 25.3067 20.8716 24.9183C21.0257 24.2385 21.1604 23.5393 21.276 22.8596C21.43 21.9273 21.5648 20.9756 21.6996 20.0434C21.7188 19.9463 21.6996 19.8686 21.6033 19.8492C21.0449 19.7326 20.5058 19.5967 19.9474 19.4802C19.6779 19.4219 19.5431 19.5578 19.4276 19.7909C19.3698 19.9074 19.2928 20.0434 19.2158 20.1405C19.1002 20.2959 18.8884 20.3153 18.7537 20.2376C18.5996 20.1405 18.5419 19.9463 18.5996 19.7521C18.6381 19.6744 18.6766 19.5967 18.7151 19.519C18.8499 19.2277 18.8307 19.1306 18.5419 18.9752C18.4071 18.8975 18.2723 18.8392 18.1375 18.7615C18.0605 18.7227 18.0027 18.6644 17.9257 18.6062C17.7717 18.4702 17.7332 18.276 17.8294 18.14C17.9257 18.0041 18.1568 17.9264 18.3301 18.0235C18.5226 18.14 18.7344 18.2566 18.9077 18.3925C19.0232 18.4702 19.1195 18.4702 19.2158 18.3925C19.312 18.2954 19.389 18.1983 19.4661 18.0818C19.6008 17.8681 19.6971 17.6351 19.8126 17.402C19.9282 17.169 20.1015 16.9942 20.371 16.9747C20.4288 16.9747 20.5058 17.0136 20.525 17.0524C20.6791 17.2855 20.6598 17.538 20.5058 17.771C20.3903 17.9264 20.2747 18.0818 20.1592 18.2177C19.8897 18.5868 19.9474 18.7616 20.3903 18.8392C20.7753 18.8975 21.1412 18.9363 21.5263 18.9946C21.584 18.9946 21.6225 18.9946 21.6996 18.9752C21.7188 18.6839 21.7381 18.3731 21.7188 18.0818C21.6996 17.5962 21.661 17.1107 21.6225 16.6251C21.6225 16.4698 21.5455 16.4503 21.4107 16.4503C20.6598 16.5086 19.9089 16.5863 19.1387 16.6251C18.2723 16.664 17.4829 16.9165 16.7512 17.3632C16.1543 17.7322 15.5382 18.0624 14.9221 18.3925C14.768 18.4896 14.614 18.5091 14.4407 18.4508C14.2867 18.3925 14.2289 18.276 14.2674 18.1206C14.3252 17.8876 14.4985 17.7322 14.691 17.6157C15.1146 17.402 15.5189 17.1884 15.9425 16.9553C16.0966 16.8776 16.2506 16.7611 16.4046 16.664C16.2699 16.4698 16.0773 16.3921 15.8848 16.3338C15.5574 16.2173 15.2301 16.1007 14.9221 16.0036C14.7295 15.926 14.5562 15.8094 14.4407 15.6346C14.3252 15.4598 14.3637 15.3627 14.5562 15.2656C14.768 15.1685 14.9798 15.2073 15.1916 15.285C15.673 15.4792 16.1736 15.6929 16.6549 15.8677C16.8475 15.9454 17.0593 15.9454 17.2903 15.9842C17.2518 15.7706 17.2326 15.5958 17.1941 15.4404C17.0785 14.9549 16.963 14.4887 16.8475 14.0032C16.7897 13.7313 16.7897 13.4788 16.9245 13.2263C17.04 13.0515 17.0978 13.0321 17.2518 13.168C17.4444 13.3234 17.5406 13.5371 17.5984 13.7895C17.6947 14.2557 17.7717 14.7412 17.868 15.2073C17.9065 15.3821 17.945 15.5569 18.0027 15.7317C18.0798 15.9454 18.176 16.0231 18.3878 16.0036C19.158 15.926 19.9282 15.8288 20.7176 15.7317C20.7753 15.7317 20.8139 15.6929 20.8909 15.6735C20.6791 15.4598 20.4288 15.3821 20.1785 15.285C19.7934 15.1491 19.4083 15.0131 19.0425 14.8383C18.8692 14.7606 18.7344 14.6053 18.5996 14.4693C18.5226 14.411 18.5611 14.3334 18.6189 14.2557C18.7537 14.1197 18.9269 14.0614 19.1195 14.1197C19.5238 14.2557 19.9089 14.3916 20.294 14.547C20.6406 14.6829 20.9871 14.8383 21.353 14.9743C21.6418 15.0908 21.7573 15.0325 21.7958 14.7218C21.8536 14.2168 21.9113 13.6924 21.9499 13.1875C21.9691 13.0321 21.9691 12.8573 21.9691 12.7019C21.9884 12.4883 21.8728 12.3523 21.6803 12.2746C21.1219 12.0416 20.5636 11.8085 20.0244 11.556C19.8319 11.4783 19.6779 11.323 19.5238 11.1676C19.4083 11.0511 19.4468 10.9539 19.6008 10.8763C19.8319 10.7597 20.0822 10.7597 20.3132 10.8568C20.6791 11.0122 21.0449 11.2064 21.4107 11.3618C21.4878 11.4006 21.584 11.4201 21.6803 11.4589C21.7573 11.323 21.7381 11.187 21.6996 11.0511C21.5648 10.6043 21.4492 10.1382 21.3337 9.69152C21.276 9.47788 21.3722 9.34192 21.6033 9.26424C21.7573 9.20597 21.8728 9.24481 21.9691 9.45845C22.1039 9.74978 22.2002 10.0605 22.2964 10.3713C22.3542 10.5849 22.3927 10.8374 22.4505 11.0511C22.5467 11.3812 22.7008 11.4006 22.9318 11.1676C23.1051 10.9734 23.2591 10.7791 23.4324 10.5655C23.5865 10.3907 23.779 10.2548 24.0293 10.2159C24.2219 10.1965 24.2989 10.2548 24.2989 10.4684C24.2989 10.682 24.2411 10.8568 24.0871 10.9928C23.9138 11.1676 23.7405 11.3618 23.5672 11.5366C23.5672 11.556 23.5865 11.556 23.5865 11.5754C23.7405 11.5754 23.8945 11.5949 24.0293 11.556C24.3759 11.4978 24.7225 11.4006 25.069 11.323C25.3579 11.2647 25.6467 11.2258 25.9355 11.323C26.0318 11.3424 26.128 11.3618 26.1665 11.4978C26.1858 11.6337 26.1665 11.7697 26.0318 11.8279C25.897 11.9056 25.7622 11.9639 25.6082 11.9833C24.8187 12.1387 24.0293 12.2941 23.2399 12.4494C22.8163 12.5271 22.7008 12.6825 22.6815 13.1292C22.6238 13.7701 22.566 14.411 22.5082 15.052C22.5082 15.0908 22.5082 15.1102 22.5082 15.1685C22.5852 15.1297 22.6623 15.1102 22.7393 15.0908C23.7405 14.6247 24.6262 13.9838 25.4349 13.2457C25.6082 13.0904 25.7622 12.935 25.9162 12.799C26.0703 12.6631 26.2436 12.566 26.4361 12.5271C26.5709 12.5077 26.7057 12.5271 26.7827 12.6436C26.8597 12.7796 26.8212 12.9156 26.7442 13.0127C26.6094 13.1875 26.4554 13.3428 26.3206 13.4982C26.2821 13.5371 26.2436 13.5953 26.205 13.6342L26.2243 13.673C26.4361 13.673 26.6671 13.6536 26.8789 13.6536C27.0137 13.6536 27.1678 13.6342 27.3025 13.6536C27.3988 13.673 27.4951 13.7119 27.5914 13.7895C27.7261 13.8867 27.7454 14.042 27.6106 14.1391C27.4951 14.2362 27.341 14.3334 27.2063 14.3528C26.9367 14.3916 26.6672 14.3722 26.3976 14.3916C26.205 14.3916 26.0318 14.4305 25.8392 14.4305L25.82 14.4887C25.897 14.5664 25.9547 14.6635 26.0318 14.7412C26.1665 14.8577 26.3206 14.9743 26.4554 15.0908C26.6094 15.2073 26.6864 15.3821 26.6864 15.5764C26.6864 15.6346 26.6286 15.7123 26.5901 15.7317C26.3591 15.8483 26.1473 15.79 25.9547 15.6346C25.7429 15.4598 25.5697 15.285 25.3771 15.0908C25.0113 14.7218 24.7417 14.6829 24.2989 14.9937C24.0678 15.1685 23.856 15.3821 23.6442 15.5764C23.6442 15.5958 23.6635 15.6152 23.6635 15.6152C23.8945 15.6346 24.1256 15.6735 24.3566 15.6929C24.5107 15.7123 24.684 15.7317 24.838 15.7512C24.8765 15.7512 24.915 15.7706 24.9535 15.7706C25.1653 15.8288 25.3194 15.9648 25.3001 16.1202C25.3001 16.3144 25.1268 16.4698 24.8765 16.4892C24.7417 16.4892 24.6069 16.4892 24.4914 16.4698C24.0293 16.4115 23.548 16.3144 23.0859 16.2755C22.8741 16.2561 22.6623 16.2755 22.4505 16.2755C22.4697 17.2078 22.3349 18.1012 22.6045 18.9946C23.1051 18.9558 23.6057 18.9363 24.1063 18.8781C24.761 18.8004 25.4156 18.7033 26.0703 18.6256C26.3206 18.5868 26.4746 18.4702 26.5709 18.2372C26.7057 17.9458 26.8597 17.6739 27.0137 17.402C27.1485 17.169 27.3218 16.9747 27.5914 16.8776C27.6876 16.8388 27.7454 16.8582 27.7839 16.9359C27.9187 17.1495 27.8994 17.3632 27.7839 17.5768C27.6491 17.8293 27.4758 18.0818 27.3218 18.3343C26.9945 18.8004 27.033 18.9558 27.5143 19.2665C27.8802 19.4996 28.246 19.7326 28.5926 19.9851C28.9006 20.1988 29.0354 20.4318 29.0354 20.7232C28.7659 20.8397 28.4963 20.8009 28.2845 20.6649C27.9379 20.4513 27.6106 20.2182 27.3218 19.9463C26.8019 19.4607 26.2243 19.2859 25.5311 19.3831C24.684 19.4996 23.8368 19.6161 22.9896 19.7326C22.9511 19.7326 22.8933 19.7521 22.8548 19.7521C22.566 19.7715 22.3927 19.9463 22.3349 20.2376C22.2772 20.5678 22.2002 20.898 22.1424 21.2281C21.9306 22.51 21.7381 23.7918 21.5263 25.0931C21.4492 25.5398 21.4492 25.5398 21.9114 25.5592C23.6635 25.6175 25.4156 25.6563 27.1678 25.7146C27.5143 25.734 27.8032 25.6175 28.0342 25.3456C28.3423 24.9766 28.6696 24.627 28.9969 24.2774C29.1317 24.1414 29.2857 24.0249 29.4783 23.986C29.613 23.9666 29.7286 23.986 29.8248 24.1026C29.9019 24.2191 29.8826 24.3551 29.8056 24.4522C29.613 24.7047 29.4013 24.9377 29.1895 25.1902C29.0932 25.3067 28.9969 25.4233 28.9006 25.5398C28.9006 25.5592 28.9199 25.5786 28.9199 25.5981C29.0547 25.5981 29.1895 25.6175 29.3242 25.6175C29.7863 25.5786 30.2484 25.5204 30.7105 25.4815C30.9223 25.4621 31.1149 25.4815 31.2882 25.6175C31.4807 25.7729 31.4807 25.9865 31.2882 26.103C31.1534 26.1807 30.9608 26.239 30.8068 26.2584C30.441 26.2972 30.0944 26.2778 29.7286 26.2972C29.536 26.3167 29.3435 26.3555 29.1124 26.3749C29.1702 26.4915 29.1895 26.5886 29.2665 26.6468C29.613 26.977 29.9404 27.3266 30.3062 27.6374C30.6913 27.9675 31.1726 28.0646 31.6733 27.987C32.5589 27.8704 33.4254 27.715 34.3111 27.5597C34.7924 27.482 35.2545 27.3655 35.7166 27.3072C35.967 27.2683 36.2173 27.2878 36.4676 27.3266C36.7179 27.3655 36.7564 27.5791 36.6023 27.7733C36.4676 27.9287 36.2943 27.9675 36.121 28.0064C35.1583 28.1618 34.2148 28.3366 33.2521 28.4919C32.9825 28.5502 32.6937 28.6085 32.4242 28.6667C32.4242 28.6861 32.4049 28.7056 32.4049 28.725C32.5012 28.8027 32.5975 28.8998 32.713 28.9386C33.3099 29.1523 33.8682 29.4436 34.4266 29.7544C34.6384 29.8709 34.8887 29.9486 35.1005 30.0457C35.3316 30.1428 35.5434 30.2593 35.6204 30.5312C35.6781 30.706 35.6396 30.7837 35.4663 30.842C35.2353 30.9002 35.0235 30.8808 34.8117 30.7837C34.1185 30.4341 33.4254 30.0651 32.7322 29.7155C32.2894 29.5019 31.8465 29.3271 31.3459 29.1134C31.4037 29.3659 31.4229 29.5601 31.5 29.7544C31.8465 30.7449 32.1931 31.7548 32.5397 32.7453C32.5975 32.9007 32.713 33.0172 32.8863 32.9978C33.2328 32.9784 33.5794 32.9395 33.926 32.9007C34.0415 32.8813 34.1571 32.8619 34.2918 32.8619C34.5421 32.8424 34.7732 32.9201 34.9465 33.0949C35.2353 33.3668 35.5241 33.6387 35.8129 33.9301C35.9669 34.0854 36.0055 34.2797 35.967 34.4739C35.9284 34.6681 35.8322 34.7069 35.6589 34.6487C35.3701 34.5516 35.1583 34.3768 34.985 34.1437C34.5806 33.5999 33.7527 33.4445 33.1751 33.7941C33.1366 33.8135 33.1173 33.9106 33.1173 33.9495C33.1751 34.0854 33.2521 34.2214 33.3291 34.3573C33.6564 34.8235 33.7335 35.3479 33.6372 35.8917C33.6179 36.0082 33.5602 36.1442 33.5024 36.2413C33.4254 36.3772 33.2906 36.3966 33.1558 36.2995C32.9825 36.183 32.9248 36.0082 32.9055 35.814C32.8863 35.5809 32.867 35.3284 32.8093 35.0954C32.713 34.9983 32.5975 34.7846 32.3664 34.6098Z" fill="black"/>
<path d="M198.126 29.2494H192.928L194.603 22.4711H191.195L189.52 29.2494H184.321L187.459 16.5669C187.459 16.4309 187.44 16.295 187.382 16.1784C187.325 16.0619 187.248 16.0036 187.113 16.0036H179.411C179.334 16.0036 179.296 15.8871 179.296 15.654C179.296 15.5569 179.296 15.4598 179.315 15.3433C179.334 15.2268 179.353 15.1297 179.373 15.0325C179.45 14.7995 179.507 14.683 179.565 14.683H193.12L191.522 21.131H194.93L196.528 14.683H201.727L198.126 29.2494Z" fill="white"/>
<path d="M199.763 28.5696L202.304 18.3537H206.271L203.864 28.0258C203.864 28.1229 203.903 28.22 203.98 28.3171C204.057 28.4143 204.134 28.4531 204.23 28.4531H205.886C205.982 28.4531 206.098 28.3948 206.232 28.2783C206.367 28.1618 206.444 28.0452 206.483 27.9481L208.87 18.3343H212.837L210.295 28.5502C210.276 28.6473 210.218 28.7444 210.141 28.8415C210.064 28.9386 209.968 29.0358 209.871 29.1134C209.756 29.1911 209.66 29.2688 209.544 29.3271C209.429 29.3854 209.332 29.4242 209.236 29.4436H200.437C200.283 29.4242 200.129 29.3271 199.994 29.1717C199.859 29.0163 199.782 28.8415 199.782 28.6473L199.763 28.5696Z" fill="white"/>
<path d="M214.531 18.3537H229.626C229.78 18.3732 229.934 18.4703 230.069 18.6256C230.204 18.781 230.281 18.9558 230.281 19.1306C230.281 19.1889 230.281 19.2277 230.262 19.2666L227.739 29.4825H223.773L226.18 19.8104C226.18 19.7133 226.141 19.6162 226.064 19.519C225.987 19.4219 225.91 19.3831 225.814 19.3831H224.235L221.732 29.5019H217.766L220.172 19.8298C220.172 19.7327 220.134 19.6356 220.057 19.5385C219.98 19.4414 219.903 19.4025 219.807 19.4025H218.228L215.725 29.5213H211.758L214.531 18.3537Z" fill="white"/>
<path d="M231.975 19.2665C231.995 19.1888 232.033 19.1111 232.11 18.9946C232.187 18.8781 232.283 18.781 232.399 18.7033C232.514 18.6062 232.611 18.5285 232.726 18.4702C232.842 18.412 232.938 18.3731 233.034 18.3731H241.853C242.026 18.3731 242.161 18.4702 242.296 18.645C242.43 18.8392 242.488 19.014 242.488 19.1694L239.947 29.4825H235.98L236.943 25.5592H234.344L233.381 29.4825H229.415L231.975 19.2665ZM238.387 19.8686L238.406 19.7909C238.406 19.6938 238.368 19.5967 238.291 19.4996C238.214 19.4025 238.137 19.3636 238.04 19.3636H236.385C236.288 19.3636 236.173 19.4219 236.038 19.5384C235.903 19.655 235.826 19.7715 235.788 19.8686L234.632 24.5493H237.232L238.387 19.8686Z" fill="white"/>
<path d="M254.079 18.3537C254.233 18.3732 254.387 18.4703 254.522 18.6256C254.657 18.781 254.734 18.9558 254.734 19.1306C254.734 19.1889 254.734 19.2277 254.715 19.2666L252.192 29.4825H248.226L250.633 19.8104C250.633 19.7133 250.594 19.6162 250.517 19.519C250.44 19.4219 250.363 19.3831 250.267 19.3831H248.13L245.627 29.5019H241.66L244.414 18.3732H254.079V18.3537Z" fill="white"/>
<path d="M264.746 23.2869C265.016 23.2869 265.247 23.3646 265.439 23.5199C265.632 23.6753 265.709 23.889 265.709 24.1414C265.709 24.1803 265.689 24.2774 265.67 24.3939L264.63 28.5891C264.611 28.6862 264.553 28.7833 264.476 28.8804C264.399 28.9775 264.303 29.0746 264.207 29.1523C264.091 29.23 263.995 29.3077 263.88 29.3659C263.764 29.4242 263.668 29.463 263.571 29.4825H254.772C254.618 29.463 254.464 29.3659 254.329 29.2106C254.195 29.0552 254.118 28.8804 254.118 28.6862L254.753 26.0448H258.719L258.238 28.0452C258.238 28.1423 258.277 28.2395 258.334 28.3171C258.392 28.3948 258.469 28.4531 258.565 28.4531H260.26C260.356 28.4531 260.472 28.3948 260.606 28.2783C260.741 28.1618 260.818 28.0452 260.857 27.9481L261.665 24.6658C261.665 24.5687 261.627 24.491 261.569 24.4133C261.511 24.3357 261.434 24.2968 261.319 24.2968H256.428C256.159 24.2968 255.928 24.2191 255.735 24.0443C255.542 23.889 255.446 23.6753 255.446 23.4228C255.446 23.384 255.446 23.3451 255.446 23.3063C255.446 23.2675 255.465 23.2286 255.465 23.1703L256.428 19.2277C256.447 19.1306 256.505 19.0335 256.582 18.9364C256.659 18.8393 256.755 18.7421 256.852 18.6645C256.967 18.5868 257.064 18.5091 257.198 18.4508C257.314 18.3926 257.429 18.3537 257.526 18.3343H266.325C266.479 18.3537 266.633 18.4508 266.768 18.6062C266.902 18.7616 266.979 18.9364 266.979 19.1112C266.979 19.1694 266.979 19.2083 266.96 19.2471L266.402 21.5195H262.435L262.84 19.8492V19.8104C262.84 19.7132 262.801 19.6161 262.744 19.5384C262.686 19.4413 262.609 19.3831 262.513 19.3636H260.837C260.741 19.3636 260.626 19.4219 260.491 19.5384C260.356 19.655 260.279 19.7715 260.24 19.8686L259.49 22.8984C259.49 22.9955 259.528 23.0732 259.586 23.1509C259.644 23.2286 259.74 23.2675 259.855 23.2675H264.746V23.2869Z" fill="white"/>
<path d="M55.0673 23.8695H54.3549L54.817 29.3076H49.6376L49.1755 23.8695H47.5581L46.2103 29.3076H41.0117L44.1501 16.6251C44.1501 16.4892 44.1309 16.3532 44.0731 16.2367C44.0154 16.1202 43.9383 16.0619 43.8036 16.0619H36.1019C36.0248 16.0619 35.9863 15.9454 35.9863 15.7123C35.9863 15.6152 35.9863 15.5181 36.0056 15.4016C36.0248 15.285 36.0441 15.1879 36.0633 15.0908C36.1404 14.8577 36.1981 14.7412 36.2559 14.7412H57.2815C57.4933 14.7606 57.7051 14.8772 57.8784 15.0908C58.071 15.3044 58.148 15.5181 58.148 15.7511C58.148 15.8288 58.148 15.8871 58.1287 15.9065L56.4536 22.6654C56.4344 22.7819 56.3573 22.8984 56.2611 23.0344C56.1648 23.1703 56.0493 23.3063 55.8952 23.4228C55.7605 23.5393 55.6257 23.6559 55.4716 23.7336C55.3176 23.8307 55.1828 23.8695 55.0673 23.8695ZM51.4475 21.8885L52.7183 16.7417V16.664C52.7183 16.528 52.6798 16.3921 52.5835 16.2755C52.4872 16.159 52.391 16.0813 52.2754 16.0813H49.4836L47.8855 22.5294H50.8314C50.9854 22.4906 51.1202 22.4129 51.2357 22.2769C51.3512 22.1604 51.4282 22.0244 51.4475 21.8885Z" fill="black"/>
<path d="M66.8507 23.2866L66.6004 24.2966H61.5558L60.516 28.4723H63.1153L63.7122 26.0445H67.6786L66.8314 29.4822H56.3186L59.072 18.3535H69.5848L68.7953 21.5386H64.829L65.3681 19.3634H62.7688L61.8061 23.2866H66.8507Z" fill="black"/>
<path d="M79.3659 23.2868C79.6355 23.2868 79.8665 23.3645 80.059 23.5199C80.2516 23.6753 80.3286 23.8889 80.3286 24.1414C80.3286 24.1803 80.3093 24.2774 80.2901 24.3939L79.2504 28.589C79.2311 28.6861 79.1733 28.7832 79.0963 28.8804C79.0193 28.9775 78.923 29.0746 78.8268 29.1523C78.7112 29.23 78.615 29.3076 78.4995 29.3659C78.3839 29.4242 78.2877 29.463 78.1914 29.4824H69.3922C69.2382 29.463 69.0841 29.3659 68.9493 29.2105C68.8146 29.0552 68.7375 28.8804 68.7375 28.6861L69.3729 26.0448H73.3393L72.858 28.0452C72.858 28.1423 72.8965 28.2394 72.9542 28.3171C73.012 28.3948 73.089 28.4531 73.1853 28.4531H74.8797C74.9759 28.4531 75.0915 28.3948 75.2262 28.2783C75.361 28.1617 75.438 28.0452 75.4765 27.9481L76.2852 24.6658C76.2852 24.5687 76.2467 24.491 76.1889 24.4133C76.1312 24.3356 76.0542 24.2968 75.9386 24.2968H71.0481C70.7785 24.2968 70.5474 24.2191 70.3549 24.0443C70.1624 23.8889 70.0661 23.6753 70.0661 23.4228C70.0661 23.384 70.0661 23.3451 70.0661 23.3063C70.0661 23.2674 70.0853 23.2286 70.0853 23.1703L71.0481 19.2277C71.0673 19.1306 71.1251 19.0334 71.2021 18.9363C71.2791 18.8392 71.3754 18.7421 71.4717 18.6644C71.5872 18.5867 71.6834 18.5091 71.8182 18.4508C71.9338 18.3925 72.0493 18.3537 72.1456 18.3343H80.9447C81.0988 18.3537 81.2528 18.4508 81.3876 18.6062C81.5224 18.7615 81.5994 18.9363 81.5994 19.1111C81.5994 19.1694 81.5994 19.2082 81.5801 19.2471L81.0218 21.5195H77.0554L77.4597 19.8492V19.8103C77.4597 19.7132 77.4212 19.6161 77.3634 19.5384C77.3057 19.4413 77.2287 19.383 77.1324 19.3636H75.4765C75.3803 19.3636 75.2647 19.4219 75.13 19.5384C74.9952 19.6549 74.9182 19.7715 74.8797 19.8686L74.1287 22.8984C74.1287 22.9955 74.1672 23.0732 74.225 23.1509C74.2828 23.2286 74.379 23.2674 74.4946 23.2674H79.3659V23.2868Z" fill="black"/>
<path d="M83.4287 18.9946C83.5057 18.878 83.602 18.7809 83.7175 18.7033C83.833 18.6061 83.9293 18.5285 84.0448 18.4702C84.1603 18.4119 84.2566 18.3731 84.3529 18.3731H93.1906C93.3639 18.3731 93.4987 18.4702 93.6334 18.645C93.7682 18.8392 93.826 19.014 93.826 19.1694L91.4962 28.589C91.477 28.6861 91.4192 28.7832 91.3422 28.8803C91.2652 28.9774 91.1689 29.0746 91.0726 29.1522C90.9571 29.2299 90.8608 29.3076 90.7453 29.3659C90.6298 29.4241 90.5335 29.463 90.4372 29.4824H81.638C81.484 29.463 81.33 29.3659 81.1952 29.2105C81.0604 29.0551 80.9834 28.8803 80.9834 28.6861L83.3132 19.2665C83.3132 19.1888 83.3517 19.0917 83.4287 18.9946ZM89.7248 19.7909C89.7248 19.6938 89.6863 19.5967 89.6093 19.4995C89.5323 19.4024 89.4553 19.3636 89.359 19.3636H87.7031C87.6069 19.3636 87.4913 19.4219 87.3566 19.5384C87.2218 19.6549 87.1448 19.7715 87.1062 19.8686L85.0846 28.0258C85.0846 28.1229 85.1231 28.22 85.2001 28.3171C85.2771 28.4142 85.3541 28.4531 85.4504 28.4531H87.1062C87.2025 28.4531 87.318 28.3948 87.4528 28.2783C87.5876 28.1617 87.6646 28.0452 87.7031 27.9481L89.7056 19.8491L89.7248 19.7909Z" fill="black"/>
<path d="M93.2097 28.5696L95.7513 18.3537H99.7176L97.3109 28.0258C97.3109 28.1229 97.3494 28.22 97.4264 28.3171C97.5034 28.4142 97.5804 28.4531 97.6767 28.4531H99.3326C99.4288 28.4531 99.5444 28.3948 99.6791 28.2783C99.8139 28.1617 99.8909 28.0452 99.9294 27.9481L102.317 18.3343H106.283L103.742 28.5502C103.723 28.6473 103.665 28.7444 103.588 28.8415C103.511 28.9386 103.414 29.0357 103.318 29.1134C103.203 29.1911 103.106 29.2688 102.991 29.3271C102.875 29.3853 102.779 29.4242 102.683 29.4436H93.8836C93.7296 29.4242 93.5755 29.3271 93.4408 29.1717C93.306 29.0163 93.229 28.8415 93.229 28.6473L93.2097 28.5696Z" fill="black"/>
<path d="M115.853 25.5592H115.468L115.737 29.4825H111.79L111.482 25.5592H110.134L109.171 29.4825H105.205L107.958 18.3537H117.624C117.797 18.3537 117.932 18.4508 118.067 18.6256C118.202 18.8198 118.259 18.9946 118.259 19.15L116.912 24.6464C116.892 24.7435 116.835 24.8406 116.758 24.9377C116.681 25.0348 116.584 25.1319 116.469 25.2096C116.353 25.2873 116.257 25.365 116.141 25.4233C116.045 25.5204 115.949 25.5592 115.853 25.5592ZM114.158 19.8686L114.178 19.7909C114.178 19.6938 114.139 19.5967 114.062 19.4996C113.985 19.4025 113.908 19.3636 113.812 19.3636H111.675L110.384 24.5493H112.541C112.676 24.5493 112.791 24.491 112.907 24.3939C113.022 24.2774 113.08 24.1803 113.119 24.0637L114.158 19.8686Z" fill="black"/>
<path d="M117.682 28.5696L119.992 19.2471C120.012 19.15 120.069 19.0529 120.146 18.9558C120.223 18.8587 120.32 18.7616 120.416 18.6839C120.531 18.6062 120.628 18.5285 120.763 18.4702C120.878 18.412 120.994 18.3731 121.09 18.3537H129.889C130.043 18.3731 130.197 18.4702 130.332 18.6256C130.467 18.781 130.544 18.9558 130.544 19.1306C130.544 19.1888 130.544 19.2277 130.524 19.2665L129.966 21.5389H126L126.404 19.8686V19.8103C126.404 19.7132 126.366 19.6161 126.308 19.5384C126.25 19.4413 126.173 19.3831 126.077 19.3636H124.382C124.286 19.3636 124.171 19.4219 124.036 19.5384C123.901 19.655 123.824 19.7715 123.785 19.8686L121.764 28.0258C121.764 28.1229 121.802 28.22 121.879 28.3171C121.956 28.4142 122.033 28.4531 122.13 28.4531H123.824C123.92 28.4337 124.036 28.3754 124.151 28.2783C124.286 28.1618 124.344 28.0647 124.382 27.9481L124.844 26.0254H128.811L128.175 28.5502C128.156 28.6473 128.098 28.7444 128.021 28.8415C127.944 28.9386 127.848 29.0357 127.752 29.1134C127.636 29.1911 127.54 29.2688 127.425 29.3271C127.309 29.3853 127.213 29.4242 127.116 29.4436H118.317C118.163 29.4242 118.009 29.3271 117.874 29.1717C117.74 29.0163 117.663 28.8415 117.663 28.6473L117.682 28.5696Z" fill="black"/>
<path d="M140.229 23.2869L139.978 24.2968H134.934L133.894 28.4725H136.493L137.09 26.0448H141.057L140.209 29.4825H129.697L132.45 18.3537H142.963L142.173 21.5389H138.207L138.746 19.3636H136.147L135.184 23.2869H140.229Z" fill="black"/>
<path d="M152.147 24.5299L151.897 25.5398H146.852L145.889 29.4825H141.923L144.676 18.3537H155.189L154.092 22.7819H150.125L150.972 19.3636H148.373L147.083 24.5299H152.147V24.5299Z" fill="black"/>
<path d="M154.361 28.5696L156.903 18.3537H160.869L158.462 28.0452C158.462 28.1423 158.501 28.2394 158.578 28.3366C158.655 28.4337 158.732 28.4725 158.828 28.4725H160.484C160.58 28.4725 160.696 28.4142 160.831 28.2977C160.966 28.1812 161.043 28.0647 161.081 27.9675L163.469 18.3537H167.435L164.893 28.5696C164.874 28.6667 164.816 28.7638 164.739 28.861C164.662 28.9581 164.566 29.0552 164.47 29.1329C164.354 29.2105 164.258 29.2882 164.142 29.3465C164.027 29.4048 163.931 29.4436 163.834 29.463H155.035C154.881 29.4436 154.727 29.3465 154.592 29.1911C154.458 29.0357 154.381 28.861 154.381 28.6667L154.361 28.5696Z" fill="black"/>
<path d="M173.096 18.3537L170.593 28.4725H173.192L173.789 26.0448H177.755L176.908 29.4825H166.395L169.149 18.3537H173.096V18.3537Z" fill="black"/>
<path d="M40.0681 32.4734C36.5831 38.7467 29.9211 43.0195 22.2964 43.0195C11.0519 43.0195 1.92543 33.8135 1.92543 22.4906C1.92543 11.1482 11.0519 1.94219 22.2964 1.94219C29.7478 1.94219 36.2558 6.00137 39.8178 12.0222H42.032C38.2775 4.8749 30.8453 0 22.2964 0C9.99296 0 0 10.08 0 22.4906C0 34.9012 9.99296 44.9811 22.2964 44.9811C31.0186 44.9811 38.6048 39.8926 42.2631 32.4929H40.0681V32.4734Z" fill="white"/>
</svg>
