<?xml version="1.0" encoding="UTF-8" standalone="no"?><!DOCTYPE svg PUBLIC "-//W3C//DTD SVG 1.1//EN" "http://www.w3.org/Graphics/SVG/1.1/DTD/svg11.dtd"><svg width="100%" height="100%" viewBox="0 0 101 121" version="1.1" xmlns="http://www.w3.org/2000/svg" xmlns:xlink="http://www.w3.org/1999/xlink" xml:space="preserve" xmlns:serif="http://www.serif.com/" style="fill-rule:evenodd;clip-rule:evenodd;stroke-linejoin:round;stroke-miterlimit:2;"><rect id="_4-fingers" serif:id="4 fingers" x="0.032" y="0.053" width="100" height="120" style="fill:none;"/><clipPath id="_clip1"><rect x="0.032" y="0.053" width="100" height="120"/></clipPath><g clip-path="url(#_clip1)"><path d="M54.379,46.512c-12.22,-21.734 -13.89,-42.737 -24.163,-38.854c-4.497,1.701 -7.487,6.775 -5.874,12.791c5.915,13.914 10.641,17.069 14.849,44.735c0.259,1.701 0.737,14.486 -5.169,12.273c-7.456,-2.794 -7.64,-7.18 -12.139,-8.133c-11.536,-2.444 -19.203,0.87 -17.623,7.003c1.438,5.578 11.822,10.247 20.512,20.27c4.41,6.242 9.95,5.38 16.478,12.418l0.125,11.684l36.831,0l0.145,-11.424c9.297,-7.857 12.766,-17.667 12.177,-36.479c0.665,-2.459 -1.597,-6.835 -1.278,-12.233c0.756,-12.753 3.259,-30.839 1.726,-40.153c-1.809,-10.986 -8.724,-6.645 -10.896,-4.096c-1.801,2.113 0.058,23.796 -7.691,31.505c-1.72,-2.606 -2.895,-12.409 -6.081,-37.856c-3.283,-10.129 -13.511,-10.137 -16.128,-3.04c-1.243,3.371 3.254,15.344 4.529,21.895c1.17,6.017 0.784,15.578 -0.33,17.694Z" style="fill:#fff;"/><path d="M57.231,1.441c4.368,0.085 8.001,3.825 9.464,8.128c0.014,0.043 0.072,0.204 0.1,0.333c1.383,11.041 2.334,22.232 4.545,33.009c0.283,1.378 0.575,2.765 1.142,4.046l0.014,0.032c3.308,-3.733 4.38,-9.054 5.126,-14.256c0.73,-5.093 0.501,-10.377 1.527,-15.305c0.764,-3.669 6.151,-5.894 9.074,-3.857c2.425,1.689 3.015,4.932 3.373,7.674c0.946,7.264 0.157,14.694 -0.457,22.121c-0.488,5.901 -1.236,11.817 -1.42,17.716c-0.108,3.461 1.22,6.932 1.411,10.252c0.053,0.912 -0.097,1.823 -0.076,2.759c0.194,9.757 -0.479,19.828 -5.644,27.972c-1.768,2.788 -4.023,5.24 -6.522,7.399c0,0 -0.19,11.241 -0.19,11.241c0,0 -0.099,0.434 -0.492,0.486l-36.831,0c-0.281,-0.037 -0.45,-0.192 -0.492,-0.487l-0.123,-11.493c-4.716,-5.055 -12.331,-6.646 -16.374,-12.309c-5.016,-5.748 -11.494,-10.002 -16.96,-15.196c-2.801,-2.662 -5.481,-6.783 -2.693,-10.277c3.237,-4.057 10.411,-3.947 16.708,-2.698c4.033,0.8 6.299,4.774 9.576,6.749c1.608,0.969 3.459,2.126 4.934,1.643c1.823,-0.597 2.19,-2.853 2.484,-4.425c0.081,-0.434 0.146,-0.872 0.199,-1.31c0.298,-2.463 0.257,-4.945 -0.127,-7.407c-1.561,-9.864 -3.606,-19.755 -7.711,-28.816c-2.164,-4.777 -4.692,-9.381 -6.768,-14.198c0,0 -1.102,-3.396 -0.262,-6.649c0.997,-3.857 4.355,-7.229 8.234,-7.592c3.768,-0.352 6.659,3.52 8.654,7.578c4.952,10.07 8.15,20.987 13.591,30.954c0,0 0.609,-3.476 0.671,-6.461c0.098,-4.713 -0.441,-9.387 -1.68,-14.017c-1.371,-5.12 -3.314,-10.199 -3.724,-15.389c-0.316,-4.01 3.341,-7.99 7.719,-7.95Zm-0.157,0.983c-3.588,0.039 -6.966,2.962 -6.557,7.162c0.657,6.757 3.727,13.212 4.831,20.021c0.821,5.065 0.966,10.396 0.019,15.303c-0.212,1.099 -0.755,2.688 -1.418,1.842c-5.404,-9.657 -8.84,-20.187 -13.283,-30.103c-1.746,-3.896 -3.746,-8.53 -7.618,-8.94c-5.312,-0.563 -9.854,6.156 -8.267,12.476l0.027,0.103c3.049,7.14 7.027,13.84 9.529,21.109c2.569,7.464 4.026,15.211 5.241,23.067c0.589,3.808 0.47,8.133 -1.071,11.347c-0.828,1.726 -2.667,2.914 -5.18,1.904c-2.995,-1.205 -5.47,-3.326 -7.803,-5.653c-3.48,-3.427 -9.75,-3.689 -14.792,-2.696c-2.519,0.496 -5.141,1.693 -5.937,3.934c-1.359,3.825 2.915,7.524 6.599,10.536c4.805,3.906 9.679,7.713 13.749,12.437c0.381,0.443 1.777,2.322 3.549,3.593c4.104,2.942 8.964,4.677 12.608,8.485c0.232,0.243 0.392,0.294 0.441,0.659l0.121,11.197l35.859,0l0.138,-10.938c0.021,-0.137 -0.018,-0.201 0.601,-0.735c3.201,-2.799 5.938,-6.155 7.78,-9.993c3.822,-7.962 4.052,-17.098 3.796,-25.731c0,0 0.167,-1.669 -0.186,-3.445c-0.673,-3.293 -1.239,-6.545 -1.015,-10.045c0.795,-11.775 2.725,-23.628 2.032,-35.268c-0.16,-2.692 -0.399,-5.458 -1.698,-7.875c-0.84,-1.562 -2.649,-2.727 -4.532,-2.258c-1.634,0.407 -3.124,1.43 -4.191,2.724c-0.324,0.436 -0.369,1.09 -0.459,1.702c-1.263,8.531 -0.546,17.686 -4.419,25.7c-0.709,1.467 -1.602,2.857 -2.737,4.028c0,0 -0.445,0.995 -1.204,-0.62c-1.672,-3.559 -1.897,-7.695 -2.475,-11.678c-1.243,-8.555 -2.254,-17.136 -3.327,-25.704c-1.273,-3.899 -4.262,-7.562 -8.608,-7.646c-0.071,-0.001 -0.071,-0.001 -0.143,-0.001Z" style="fill:none;"/><path d="M76.242,67.756c1.397,-7.825 -34.901,-5.785 -36.789,6.819c1.998,8.329 8.456,4.304 11.038,6.063c0.709,-3.465 6.429,1.394 11.826,4.109c3.235,1.628 4.624,-11.243 13.925,-16.991Z" style="fill:#b7cddc;"/><path d="M65.124,62.652c0.845,0.007 1.689,0.034 2.532,0.094c0.665,0.047 1.328,0.113 1.988,0.203c0.501,0.068 1,0.151 1.496,0.252c2.714,0.551 5.958,1.947 5.603,4.534c0,0 -0.242,0.432 -0.66,0.706c-5.447,3.611 -7.67,10.696 -11.273,15.63c-0.664,0.91 -1.641,1.676 -3.228,0.851c-2.946,-1.56 -5.554,-3.773 -8.783,-4.812c-0.769,-0.248 -1.644,-0.202 -1.827,0.633c0,0 -0.136,0.645 -0.903,0.213c-1.512,-0.789 -3.456,-0.173 -5.373,-0.397c-2.072,-0.242 -3.949,-1.561 -4.879,-3.454c-0.378,-0.768 -0.636,-1.584 -0.841,-2.413c0,0 0.184,-1.342 0.64,-2.302c2.283,-4.806 8.068,-6.962 13.595,-8.321c3.893,-0.956 7.95,-1.429 11.913,-1.417Zm-0.401,0.984c-7.726,0.048 -16.047,1.466 -21.569,5.966c-1.535,1.251 -2.835,2.915 -3.192,4.909c0,0 0.307,1.245 0.675,2.029c0.472,1.006 1.186,1.925 2.163,2.451c2.292,1.236 5.119,0.076 7.405,0.946c0.084,-0.184 0.199,-0.352 0.342,-0.497c0.077,-0.078 0.162,-0.148 0.254,-0.209c1.313,-0.87 2.919,0.119 4.069,0.706c0.291,0.149 0.578,0.304 0.863,0.462c2.293,1.273 4.471,2.771 6.831,3.922c1.02,0.462 1.53,-0.883 1.978,-1.642c0.12,-0.203 0.235,-0.409 0.348,-0.616c2.92,-5.345 5.658,-11.232 10.871,-14.586c0,0 0.034,-0.242 0.011,-0.399c-0.286,-2.009 -2.956,-2.583 -5.291,-3.002c-1.899,-0.34 -3.835,-0.444 -5.758,-0.44Z" style="fill:none;"/><path d="M54.146,47.247c-0.085,0.367 -1.368,1.446 2.67,1.7c6.844,-18.018 -8.29,-38.366 -2.49,-45.35c-5.333,1.496 -4.175,5.8 -4.175,6.999l6.235,22.112c0,1.198 -3.438,14.539 -2.24,14.539Z" style="fill:#b7cddc;"/><path d="M72.017,48.42c-0.085,0.366 2.062,0.916 5.396,0.731c6.844,-18.019 1.298,-29.748 7.714,-35.412c-5.333,1.495 -5.758,2.809 -5.758,4.008l-1.418,17.802c0,0.577 -0.631,5.199 -2.064,8.287c-1.543,3.326 -4.491,4.584 -3.87,4.584Z" style="fill:#b7cddc;"/><path d="M40.189,122.557c4.187,3.615 12.312,4.537 11.541,0c-1.335,-7.855 5.633,-11.544 6.137,-11.833c-5.215,0.846 -19.4,-7.468 -30.295,-15.339c-9.417,-13.648 -22.194,-21.298 -22.873,-16.766c8.786,6.036 15.072,12.43 19.753,19.053c0,0.579 11.91,8.675 16.032,11.628c4.059,2.907 -0.915,13.257 -0.295,13.257Z" style="fill:#b7cddc;"/><path d="M39.969,79.875c12.76,-18.125 -17.34,-62.349 -13.919,-69.279l-2.874,4.321c-1.081,0.13 0.293,5.949 2.409,10.737l4.693,8.802c6.955,10.828 4.906,13.642 6.624,18.486c0.945,7.814 1.425,16.831 -1.103,27.008c3.546,0.454 2.542,0.162 4.17,-0.075Z" style="fill:#b7cddc;"/><path d="M61.312,87.32c-1.079,-0.401 -1.6,-1.292 -2.491,-1.817c-3.062,-1.808 -6.363,-3.097 -9.797,-3.829l-1.31,-0.091c-0.621,-0.082 -1.244,-0.154 -1.868,-0.22c-1.631,-0.168 -1.628,-0.166 -2.257,-0.171c-2.311,-0.319 -3.054,-0.295 -4.172,-0.451c-2.188,-0.306 -4.427,-0.693 -6.237,-1.814c-2.792,-1.729 -4.621,-4.566 -7.317,-6.336c-1.349,-0.886 -2.356,-1.319 -4.19,-2.234l-0.071,-0.035c-4.213,-1.554 -9.124,-2.028 -13.155,0.965c-0.198,0.147 -0.39,0.301 -0.576,0.462c-0.149,0.13 -0.294,0.265 -0.434,0.405c-1.158,1.163 -1.952,2.968 -1.199,4.628c1.847,4.074 7.093,5.719 10.836,9.577c0.107,0.109 0.215,0.218 0.323,0.325c2.873,2.829 6.062,5.448 8.422,8.624c3.729,5.02 7.032,6.711 10.423,8.896c2.448,1.578 4.977,3.079 7.703,4.055l1.36,1.698l-1.136,0.585c-2.37,0.53 -5.495,-1.706 -8.363,-3.487c-3.84,-2.384 -7.63,-4.957 -10.757,-8.2c-1.38,-1.431 -2.361,-3.279 -3.83,-4.785c-3.456,-3.544 -6.591,-6.81 -11.882,-10.542c-3.479,-2.481 -7.999,-5.685 -5.375,-10.985c2.257,-4.558 8.165,-6.413 12.7,-5.992c2.189,0.204 4.297,0.884 6.397,1.5c0.516,0.157 0.515,0.16 0.515,0.16c3.316,1.421 6.105,3.686 8.711,6.339c2.375,2.383 5.998,3.269 9.877,3.789l1.665,0.072l1.308,0.212c0,0 4.792,0.467 6.096,0.713c4.64,0.874 9.929,2.695 12.012,6.428l0.036,0.757l-0.539,1.401c0,0 -1.022,-0.368 -1.428,-0.602Z" style="fill:#0d5889;"/><path d="M31.66,6.026c5.367,0.158 9.095,5.747 10.781,9.905c0.319,0.788 0.61,1.586 0.882,2.391c3.087,9.144 5.722,18.371 10.927,27.012c0.615,1.078 0.705,1.556 0.705,1.556l-0.324,1.801c0,0 -1.871,-0.447 -2.452,-1.395c-0.31,-0.504 -3.695,-6.442 -5.841,-11.398c-3.514,-8.116 -3.912,-17.79 -9.295,-24.235c-2.555,-3.059 -7.994,-3.983 -10.876,-0.158c-4.932,6.544 3.082,16.91 6.294,23.511c0.499,1.027 0.975,2.066 1.426,3.115c4.21,9.8 6.183,20.544 5.495,31.304c-0.155,2.423 -0.553,4.843 -1.507,7.068c0,0 -1.353,1.713 -1.353,1.713l-0.984,0.2c0,0 1.271,-5.683 1.478,-9.52c0.671,-12.452 -2.368,-24.912 -8.65,-36.033c-3.845,-6.759 -9.05,-14.024 -5.271,-21.374c0.408,-0.793 0.914,-1.536 1.505,-2.204c1.802,-2.034 4.023,-3.287 7.06,-3.259Z" style="fill:#0d5889;"/><path d="M67.403,53.129c5.378,0.029 11.369,0.028 15.376,1.906l0.602,1.685c0,0 -1.333,0.743 -1.941,0.488c-4.612,-1.881 -10.095,-1.71 -15.451,-1.71c-6.147,0.001 -12.966,-0.238 -17.901,2.895c-0.35,0.08 -0.881,0.3 -0.881,0.3l-1.028,-0.032l0.766,-1.999c5.432,-3.63 12.862,-3.509 20.075,-3.534c0.127,0 0.255,0.001 0.383,0.001Z" style="fill:#0d5889;"/><path d="M89.649,60.065c2.712,13.612 3.903,27.906 -2.6,40.522c-2.48,4.81 -6.163,9.374 -11.37,10.852c-2.882,0.817 -1.508,-2.394 -1.508,-2.394c0.698,-0.239 0.442,-0.164 0.533,-0.187c5.259,-1.358 8.824,-6.639 10.976,-11.708c4.179,-9.843 4.193,-20.898 2.53,-31.935c-0.299,-1.986 -0.723,-4.763 -0.723,-4.763l0.295,-0.332l1.475,-0.265c0.131,0.07 0.261,0.14 0.392,0.21Z" style="fill:#0d5889;"/><path d="M39.877,119.82c-0.036,-0.48 -0.068,-0.632 -0.002,-0.964c0.57,-3.091 0.452,-6.376 -0.619,-9.285c-0.366,-0.992 -0.054,-0.779 -0.005,-1.111l0.291,-1.022l1.022,0.29c0.524,0.267 0.325,-0.954 1.166,1.54c1.131,3.358 1.455,7.134 0.589,10.458c-0.017,0.066 -0.514,0.824 -0.514,0.824l-1.299,0.661c0,0 -0.623,-1.147 -0.629,-1.391Z" style="fill:#0d5889;"/><path d="M79.097,109.584c0.187,3.525 -0.411,7.153 0.937,10.467c0,0 -2.38,0.997 -2.38,0.997c-1.439,-3.505 -0.833,-7.534 -0.878,-11.389l2.105,-0.096c0.072,0.007 0.144,0.014 0.216,0.021Z" style="fill:#0d5889;"/><path d="M57.759,0.582c6.143,0.143 9.499,7.803 10.461,13.284c1.896,10.803 -0.099,22.235 4.634,31.895c0,0 0.983,-0.578 1.371,-1.18c1.318,-2.046 1.573,-4.688 2.085,-7.267c1.189,-5.983 0.628,-12.236 1.439,-18.171c0.63,-4.611 5.564,-9.725 10.532,-5.735c4.026,3.234 4.507,9.023 4.372,14.829c-0.257,11.108 -1.673,22.092 -2.474,33.118l-0.218,0.567l-1.257,1.205l-1.234,-1.838c0.859,-12.337 2.837,-24.931 2.486,-38.378c-0.123,-4.727 -4.079,-11.195 -8.016,-6.982c-1.87,2.002 -1.668,5.198 -1.687,8.083c-0.075,6.667 -0.909,13.437 -2.792,19.708c-0.928,2.998 -3.807,5.458 -5.451,5.179c0,0 -2.007,-2.668 -2.974,-5.414c-3.572,-10.146 -1.371,-21.652 -3.896,-31.662c-1.001,-3.972 -3.087,-8.529 -7.322,-8.671c-3.179,-0.106 -6.1,2.56 -6.335,5.95c-0.379,5.458 2.62,10.811 3.914,16.306c1.445,6.138 1.548,12.26 0.756,19.111c0,0 -0.393,1.632 -0.707,3.045l-0.816,0.628l-0.614,-1.158c0.03,-1.047 -0.024,-2.533 -0.024,-2.533c0.024,-0.29 0.047,-0.58 0.069,-0.871c0.697,-9.674 -2.076,-18.811 -4.458,-28.635c-1.43,-5.896 -0.199,-14.185 7.871,-14.412c0.143,-0.002 0.142,-0.002 0.285,-0.001Z" style="fill:#0d5889;"/></g></svg>