<?xml version="1.0" encoding="UTF-8" standalone="no"?><!DOCTYPE svg PUBLIC "-//W3C//DTD SVG 1.1//EN" "http://www.w3.org/Graphics/SVG/1.1/DTD/svg11.dtd"><svg width="100%" height="100%" viewBox="0 0 101 121" version="1.1" xmlns="http://www.w3.org/2000/svg" xmlns:xlink="http://www.w3.org/1999/xlink" xml:space="preserve" xmlns:serif="http://www.serif.com/" style="fill-rule:evenodd;clip-rule:evenodd;stroke-linejoin:round;stroke-miterlimit:2;"><rect id="_1-finger" serif:id="1 finger" x="0.032" y="0.445" width="100" height="120" style="fill:none;"/><clipPath id="_clip1"><rect x="0.032" y="0.445" width="100" height="120"/></clipPath><g clip-path="url(#_clip1)"><path d="M41.112,43.748c0.63,-14.814 1.864,-30.807 -1.723,-37.381c-1.867,-2.737 -5.781,-1.77 -10.732,1.071c-7.392,16.689 -6.165,43.275 -5.962,71.965c-4.973,12.158 -3.177,21.302 3.351,28.341l0.545,13.346l36.845,0l-0.015,-7.61c9.297,-7.857 13.011,-17.295 10.191,-37.805c2.658,-9.275 4.586,-21.506 -0.806,-30.458c-3.594,-5.447 -8.897,-5.674 -16.54,1.238c-2.386,-6.101 -7.353,-7.168 -15.154,-2.707Z" style="fill:#fff;"/><path d="M36.172,4.251c1.398,0.022 2.762,0.639 3.575,1.768c0,0 0.932,1.878 1.36,3.527c1.578,6.069 1.321,12.522 1.14,18.951c-0.13,4.629 -0.373,9.255 -0.583,13.881l-0.022,0.513c0.166,-0.089 0.332,-0.176 0.5,-0.263c0.176,-0.09 0.353,-0.179 0.531,-0.267c0.453,-0.219 0.909,-0.429 1.374,-0.623c0.38,-0.158 0.764,-0.305 1.153,-0.44c3.157,-1.093 7.126,-1.132 9.578,1.648c0.683,0.774 1.21,1.674 1.645,2.614c0,0 3.51,-2.759 5.538,-3.729c2.83,-1.353 6.48,-1.547 9.053,0.588c0.868,0.721 1.585,1.599 2.209,2.536c0.13,0.219 0.13,0.219 0.258,0.44c5.002,8.896 3.483,20.268 0.632,30.315c0.06,0.442 0.117,0.885 0.174,1.327c0.186,1.502 0.349,3.006 0.473,4.514c0.687,8.379 0.349,17.027 -4.001,24.291c-1.782,2.978 -4.167,5.555 -6.801,7.827c0,0 -0.03,7.42 -0.03,7.42c0,0 -0.095,0.441 -0.492,0.493l-36.845,0c-0.261,-0.04 -0.435,-0.185 -0.491,-0.472l-0.538,-13.166c-0.114,-0.123 -0.225,-0.248 -0.336,-0.373c-3.415,-3.899 -5.588,-8.774 -5.845,-14.069c-0.237,-4.876 1.014,-9.735 2.821,-14.193c-0.124,-16.462 -0.846,-33.047 0.777,-49.38c0.759,-7.634 2.052,-15.279 5.055,-22.293c0,0 0.069,-0.402 0.38,-0.626c2.445,-1.393 5.058,-2.764 7.758,-2.759Zm-0.154,0.984c-2.42,0.061 -4.709,1.276 -6.887,2.499l-0.089,0.05c-5.101,11.605 -5.647,24.8 -5.95,37.627c-0.246,10.434 -0.026,20.87 0.073,31.304l0.012,1.34c0,0 -0.026,1.532 -0.026,1.532c-2.984,7.363 -4.115,15.748 -0.356,22.807c0.971,1.822 2.209,3.493 3.612,5.016c0,0 0.09,0.063 0.13,0.313l0.526,12.875l35.881,0l-0.015,-7.117c0.085,-0.59 2.155,-2.073 3.538,-3.571c2.07,-2.243 3.797,-4.811 5.005,-7.619c3.588,-8.338 2.842,-17.798 1.652,-26.55c0,0 0.473,-1.801 0.847,-3.325c2.173,-8.841 3.183,-18.375 -1.227,-26.326c-1.297,-2.336 -3.46,-4.335 -6.195,-4.402c-3.635,-0.09 -7.012,2.491 -9.954,5.133c0,0 -0.5,0.484 -0.953,-0.593c-0.862,-1.987 -2.281,-3.818 -4.374,-4.449c-3.458,-1.042 -7.024,0.757 -9.913,2.396c0,0 -0.674,0.106 -0.734,-0.449c0.437,-10.018 1.483,-20.095 0.252,-30.01c-0.298,-2.399 -0.711,-4.819 -1.836,-6.965c-0.051,-0.096 -0.109,-0.188 -0.173,-0.272c-0.659,-0.861 -1.754,-1.257 -2.846,-1.244Z" style="fill:none;"/><path d="M64.473,86.978c0,0 -6.663,-1.409 -7.327,-1.409l-4.664,1.787c-0.664,0 -1.203,0.539 -1.203,1.203l5.867,2.783c1.214,-2.886 7.327,-3.7 7.327,-4.364Z" style="fill:#b7cddc;"/><path d="M41.809,71.451c2.11,0.198 13.409,-2.478 10.055,-2.408c-7.111,0.147 -7.521,-22.102 -10.336,-24.805c-1.199,0 -1.562,2.897 -1.562,4.096l0.922,16.412c0,1.198 -0.278,6.705 0.921,6.705Z" style="fill:#b7cddc;"/><path d="M41.584,43.75c0.555,0.102 0.82,0.805 1.074,1.397c2.459,5.731 2.113,12.414 4.86,19.014c0.899,2.16 2.118,4.317 4.637,4.392c0.064,0.003 0.126,0.007 0.189,0.014c0.674,0.091 1.241,0.832 -0.437,1.409c-3.248,1.115 -6.777,2.122 -10.015,1.974c-0.33,-0.016 -0.336,-0.035 -0.449,-0.088c-1.211,-0.56 -0.987,-2.262 -1.043,-3.434c-0.016,-0.343 -0.024,-0.685 -0.029,-1.027c-0.014,-1.083 0.025,-2.643 0.025,-2.643l-0.921,-16.412c0.006,-0.713 0.032,-0.828 0.079,-1.216c0.028,-0.237 0.063,-0.473 0.107,-0.708c0.033,-0.181 0.072,-0.361 0.116,-0.539c0.037,-0.148 0.078,-0.294 0.124,-0.438c0.036,-0.113 0.076,-0.225 0.119,-0.335c0.263,-0.666 0.644,-1.405 1.564,-1.36Zm-0.232,1.051c-0.787,0.638 -0.857,2.077 -0.893,3.425c0,0 0.92,16.507 0.92,16.507c-0.011,2.048 -0.411,4.264 0.367,6.045c0.26,0.594 1.997,0.061 3.658,-0.247c1.741,-0.323 3.471,-0.706 5.176,-1.178c0,0 -1.329,-0.646 -2.09,-1.543c-2.806,-3.305 -3.481,-7.964 -4.367,-12.212c-0.687,-3.289 -1.062,-6.702 -2.261,-9.798c-0.162,-0.418 -0.497,-1.009 -0.51,-0.999Z" style="fill:none;"/><path d="M27.515,120.445c4.187,3.615 9.7,4.536 8.929,0c-1.335,-7.855 3.018,-8.919 3.522,-9.208c-4.06,0.68 -22.187,-14.136 -16.03,-32.227c-1.199,0 -4.698,9.011 -4.698,10.209l1.034,12.498c0,0.579 5.12,3.591 6.713,7.974c1.706,4.692 -0.09,10.754 0.53,10.754Z" style="fill:#b7cddc;"/><path d="M58.714,67.053c2.11,0.198 13.413,2.028 10.309,0.753c-5.993,-2.462 -3.219,-27.145 -8.254,-24.667c-1.198,0 -3.623,2.21 -3.623,3.408l2.222,12.554c0,1.199 -1.853,7.952 -0.654,7.952Z" style="fill:#b7cddc;"/><path d="M29.823,73.797c-3.977,3.072 -1.487,-64.643 1.511,-67.801l-4.816,7.009c-1.088,0 -2.521,5.841 -3.071,13.712l0,37.047c0,7.871 -1.453,16.735 -0.364,16.735c-0.217,-1.625 6.198,-2.896 6.74,-6.702Z" style="fill:#b7cddc;"/><path d="M34.035,3.6c2.459,0.046 4.926,1.009 6.466,2.946c3.5,4.405 2.366,10.56 2.182,15.871c-0.336,9.698 -1.377,19.376 -1.064,29.06l-0.295,0.263l-1.875,0.064l-0.312,-0.245c-0.418,-11.705 1.06,-23.291 1.125,-35.04c0.021,-3.968 -0.404,-8.685 -4.053,-9.985c-2.217,-0.79 -5.138,-0.492 -6.156,1.364c-0.13,0.247 -0.13,0.246 -0.258,0.494c-11.379,22.452 -1.329,50.789 -7.369,74.36c0,0 -0.127,0.4 -0.568,1.047l-0.91,0.53l-0.556,-1.209c-0.135,-0.798 0.01,-0.809 0.082,-1.131c5.232,-23.888 -4.49,-50.588 6.532,-73.675c0.482,-1.01 0.941,-2.055 1.725,-2.822c1.389,-1.36 3.419,-1.908 5.304,-1.892Z" style="fill:#0d5889;"/><path d="M49.483,39.92c5.017,0.082 8.138,5.828 9.377,9.87c0.25,0.813 0.47,1.636 0.66,2.465c1.244,5.405 2.831,11.66 -0.722,15.849l-1.045,0.278l-1.134,-0.023c0,0 0.144,-1.321 0.144,-1.321c0.058,-0.542 -0.105,0.278 0.714,-2.124c2.37,-6.948 -0.863,-16.007 -3.483,-19.75c-1.548,-2.21 -4.589,-3.35 -7.361,-2.236c-1.448,0.583 -2.718,1.512 -4.011,2.374c0,0 -0.336,0.03 -1.118,0.315l-1.008,-0.135l0.357,-1.319c0.637,-1.054 -0.627,-0.197 2.408,-2.134c1.86,-1.188 3.974,-2.117 6.222,-2.109Z" style="fill:#0d5889;"/><path d="M65.972,40.152c12.64,0.225 13.791,27.732 8.231,36.249c-1.424,2.181 -4.086,3.745 -6.783,2.435c0,0 0.047,-0.671 0.047,-0.671l1.064,-1.745c3.128,1.364 5.17,-4.51 5.89,-8.279c1.446,-7.569 0.839,-16.204 -2.893,-22.158c-2.466,-3.936 -8.478,-4.392 -12.798,-0.032c-0.34,0.142 -0.671,0.339 -0.978,0.572l-1.043,0.113l-0.113,-1.044c1.836,-3.832 3.099,-3.752 5.346,-4.641c1.304,-0.517 2.293,-0.8 4.03,-0.799Z" style="fill:#0d5889;"/><path d="M38.111,93.682c-0.241,-4.649 10.523,-6.93 18.425,-9.168c5.108,-1.447 9.825,-5.017 10.974,-10.889c0.559,-2.861 -0.855,-6.234 -4.107,-6.206c-4.531,0.04 -8.556,3.347 -13.312,4.335c-9.498,1.974 -20.23,1.579 -26.125,9.438c-3.431,4.574 -4.512,11.202 -3.061,16.214c1.909,6.592 8.04,12.137 14.308,13.651l1.131,1.383l-0.934,0.606c-0.592,0.192 0.386,0.659 -1.876,-0.023c-8.355,-2.52 -15.271,-11.16 -15.494,-18.788c-0.2,-6.892 1.891,-14.011 7.732,-18.23c8.346,-6.028 19.865,-4.542 28.588,-8.358c0.699,-0.309 1.396,-0.622 2.096,-0.927c0.482,-0.209 0.965,-0.414 1.453,-0.607c0.328,-0.13 0.657,-0.255 0.989,-0.373c3.76,-1.338 9.246,-1.605 10.986,3.214c2.415,6.687 -3.095,14.758 -10.309,17.412c-6.62,2.436 -14.589,2.281 -19.052,7.708c0,0 -2.263,0.888 -2.263,0.888c0,0 -0.153,-0.917 -0.149,-1.28Z" style="fill:#0d5889;"/><path d="M48.247,88.21c4.032,0.083 6.694,2.486 9.15,5.382" style="fill:#fff;"/><path d="M48.982,87.238c3.59,0.101 6.969,2.571 9.081,5.311c0,0 -0.146,0.6 -0.146,0.6l-1.628,0.965c-2.026,-2.088 -4.017,-4.252 -7.149,-4.804c-0.399,-0.071 -0.911,-0.4 -0.911,-0.4l-0.683,-0.718c0,0 1.375,-0.955 1.436,-0.954Z" style="fill:#0d5889;"/><path d="M39.966,59.101c0.851,4.847 -0.655,6.74 1.843,11.289" style="fill:#fff;"/><path d="M40.633,58.988c0,0 0.754,2.729 0.809,5.546c0.045,1.772 0.48,3.518 1.303,5.078c0.01,0.138 0.027,0.254 0.027,0.254l-0.417,1.528c0,0 -1.718,-0.663 -1.718,-0.663c-1.644,-3.12 -1.302,-6.697 -1.618,-10.615l0.834,-1.681c0.26,0.184 0.52,0.369 0.78,0.553Z" style="fill:#0d5889;"/><path d="M73.806,75.378c0,0 2.603,5.199 2.877,9.911c0.723,12.431 -5.672,25.115 -15.634,31.97c0,0 -1.555,-2.017 -1.555,-2.017c12.027,-8.524 18.381,-25.428 13.012,-38.695c0,0 0.367,-1.508 0.367,-1.508c0.311,0.113 0.622,0.226 0.933,0.339Z" style="fill:#0d5889;"/><path d="M26.721,107.547c0.759,3.796 1.056,9.726 -0.13,13.543" style="fill:#fff;"/><path d="M27.356,107.422c0,0 0.591,1.009 0.591,1.009c0.844,4.27 1.053,8.813 -0.175,12.941c0,0 -1.531,0.878 -1.531,0.878c0,0 -0.889,-1.145 -0.618,-2.189c0.9,-3.673 0.695,-7.578 0.259,-11.228c0,0 0.204,-1.162 0.204,-1.162l0.51,-0.76c0.254,0.171 0.507,0.341 0.76,0.511Z" style="fill:#0d5889;"/><path d="M63.933,112.933c-0.143,2.404 -0.685,5.371 -0.902,8.157" style="fill:#fff;"/><path d="M64.637,112.978c0,0 0.906,-3.407 -0.202,6.406c-0.028,0.26 -0.055,0.519 -0.082,0.779c-0.04,0.421 -0.089,1.028 -0.089,1.028l-1.333,1.132l-1.133,-1.333c0.213,-2.648 0.663,-5.287 0.992,-7.907c0,0 1.034,-0.157 1.847,-0.105Z" style="fill:#0d5889;"/></g></svg>