<?xml version="1.0" encoding="UTF-8" standalone="no"?><!DOCTYPE svg PUBLIC "-//W3C//DTD SVG 1.1//EN" "http://www.w3.org/Graphics/SVG/1.1/DTD/svg11.dtd"><svg width="100%" height="100%" viewBox="0 0 101 121" version="1.1" xmlns="http://www.w3.org/2000/svg" xmlns:xlink="http://www.w3.org/1999/xlink" xml:space="preserve" xmlns:serif="http://www.serif.com/" style="fill-rule:evenodd;clip-rule:evenodd;stroke-linejoin:round;stroke-miterlimit:2;"><rect id="_2-fingers" serif:id="2 fingers" x="0.032" y="0.981" width="100" height="120" style="fill:none;"/><clipPath id="_clip1"><rect x="0.032" y="0.981" width="100" height="120"/></clipPath><g clip-path="url(#_clip1)"><path d="M42.782,52.624c-10.42,-24.706 -7.698,-43.53 -13.497,-48.077c-1.867,-2.737 -7.35,0.699 -11.158,6.989c-4.083,11.56 0.168,26.909 4.377,54.575c0.619,4.07 -1.765,7.888 -1.839,12.268c-4.973,12.158 -1.942,22.666 4.586,29.704l-0.563,13.543l36.831,0l-0.015,-7.61c9.297,-7.857 13.011,-17.294 10.191,-37.805c10.949,-18.009 11.518,-37.3 -9.491,-25.191c-1.72,-2.606 4.736,-27.424 4.293,-36.801c-1.01,-21.321 -13.663,-9.748 -16.877,-3.329c-2.386,-6.101 0.963,37.273 -6.838,41.734Z" style="fill:#fff;"/><path d="M60.424,1.445c3.055,0.061 4.982,3.517 5.665,6.121c0.121,0.463 0.226,0.93 0.317,1.399c0.114,0.588 0.207,1.18 0.285,1.773c1.503,11.508 -2.58,23.201 -4.024,35.075c-0.179,1.472 -0.401,2.992 -0.207,4.398c0,0 0.479,-0.168 0.716,-0.297c4.759,-2.554 11.024,-5.399 14.671,-1.149c3.131,3.649 1.962,9.431 0.286,14.748c-1.407,4.468 -3.474,8.717 -5.889,12.741c0,0 0.413,3.389 0.633,6.264c0.085,1.105 0.15,2.211 0.189,3.318c0.257,7.205 -0.594,14.752 -4.505,21.002c-1.746,2.79 -4.021,5.213 -6.52,7.368c0,0 -0.03,7.42 -0.03,7.42c0,0 -0.095,0.44 -0.492,0.492l-36.831,0c-0.293,-0.039 -0.462,-0.202 -0.491,-0.512l0.554,-13.34c-0.109,-0.118 -0.215,-0.238 -0.322,-0.358c-4.936,-5.644 -7.329,-13.201 -6.581,-20.536c0.32,-3.127 1.15,-6.184 2.328,-9.094c0.088,-4.04 2.361,-7.857 1.867,-11.913c-1.817,-13.218 -5.081,-26.422 -5.926,-39.745c-0.323,-5.093 -0.156,-10.297 1.498,-15.109c0,0 0.219,-0.441 0.46,-0.821c1.952,-3.026 4.379,-6.023 7.692,-7.254c1.287,-0.478 2.992,-0.497 3.88,0.77c3.234,2.577 3.706,7.947 4.539,13.009c1.904,11.746 4.201,23.513 8.808,34.642c0,0 1.21,-1.347 1.829,-2.892c2.064,-5.151 2.333,-10.943 2.688,-16.664c0.432,-6.957 -0.012,-14.012 0.835,-20.869c0.113,-0.908 0.579,-1.949 1.234,-1.503c2.425,-4.245 6.423,-8.493 10.844,-8.484Zm-0.161,0.984c-3.053,0.103 -5.669,2.574 -7.742,5.039c-0.944,1.123 -1.798,2.334 -2.462,3.645c0,0 -0.328,0.38 -0.702,0.189c-0.254,1.635 -0.245,3.288 -0.295,4.938c-0.307,10.064 0.031,20.223 -2.334,29.9c-0.654,2.677 -1.53,5.593 -3.649,6.88c0,0 -0.513,0.191 -0.751,-0.206c-4.986,-11.865 -7.235,-24.454 -9.399,-37.156c-0.671,-3.865 -1.075,-8.262 -3.826,-10.626c0,0 -0.359,-0.461 -0.7,-0.681c-1.033,-0.665 -2.344,-0.048 -3.248,0.451c-2.699,1.492 -4.757,4.035 -6.431,6.702c0,0 -0.721,1.924 -1.051,3.492c-1.998,9.479 0.132,19.459 1.776,29.428c1.203,7.236 2.504,14.469 3.555,21.714c0.549,3.987 -1.722,7.965 -1.845,12.151c0,0 0.06,0.019 -0.263,0.837c-3.696,9.561 -2.522,20.75 4.717,28.624c0,0 0.104,0.071 0.129,0.353l-0.541,13.032l35.825,0l-0.014,-7.118c0.085,-0.589 2.155,-2.073 3.537,-3.571c2.443,-2.646 4.388,-5.751 5.603,-9.133c2.874,-8.001 2.18,-16.761 1.055,-25.036c0,0 1.093,-2.01 1.982,-3.681c2.816,-5.288 5.187,-11.054 5.469,-16.801c0.137,-2.795 -0.189,-6.02 -2.868,-7.439c-2.405,-1.274 -5.321,-0.478 -7.673,0.375c-1.974,0.715 -3.85,1.674 -5.669,2.716c0,0 -0.545,0.092 -0.743,-0.31c-0.959,-1.954 -0.171,-4.349 0.126,-6.533c1.698,-12.449 6.463,-25.207 3.265,-36.943c-0.092,-0.34 -0.195,-0.678 -0.31,-1.012c-0.089,-0.258 -0.186,-0.515 -0.292,-0.767c-0.082,-0.193 -0.168,-0.384 -0.261,-0.572c-0.754,-1.521 -1.996,-2.913 -3.97,-2.881Z" style="fill:none;"/><path d="M65.964,76.248c0,0 -10.873,4.054 -11.537,4.054l-4.395,3.024c-0.664,0 -2.21,3.425 -2.21,4.088l5.318,5.12c0.781,-3.658 9.541,-6.853 13.001,-10.17c12.904,-12.374 -0.177,-5.836 -0.177,-6.116Z" style="fill:#b7cddc;"/><path d="M71.056,74.279c0.473,0.021 0.968,0.19 1.169,0.622c0.575,1.233 -0.642,2.314 -1.407,3.259c-3.344,4.13 -7.806,6.909 -12.917,10.203c-1.815,1.17 -3.869,2.497 -4.282,4.282c0,0 -0.352,0.638 -0.82,0.243l-5.318,-5.119c-0.861,-0.935 0.519,-2.837 1.576,-4.253c0.251,-0.336 0.784,-0.656 0.784,-0.656c0,0 4.355,-2.992 4.355,-2.992c0.179,-0.083 -0.005,0.006 0.434,-0.111c3.784,-1.066 7.454,-2.591 11.163,-3.97c0,0 1.336,-0.486 2.241,-0.812c0.985,-0.346 1.988,-0.71 3.022,-0.696Zm-0.149,0.983c-1.593,0.072 -3.067,0.949 -4.693,1.447c-1.719,0.488 -2.517,0.902 -3.556,1.283c-2.667,0.974 -5.286,2.193 -8.045,2.781c-1.713,0.307 -2.868,1.971 -4.302,2.958c-1.107,0.673 -1.21,1.577 -1.587,2.463c-0.174,0.411 -0.376,1.044 -0.376,1.044l4.581,4.411c1.966,-4.259 8.752,-5.659 13.168,-9.926c1.807,-1.745 3.758,-3.488 4.943,-5.574c0.223,-0.392 0.702,-0.902 -0.133,-0.887Zm-20.856,8.555c0.001,0 0.001,0 0,0Z" style="fill:none;"/><path d="M45.087,52.746c2.111,0.198 1.212,1.25 4.945,0.501c2.96,-0.594 -0.762,-38.12 4.395,-47.695c-1.198,0 -5.822,6.661 -5.822,7.859l-1.278,24.796c0,1.198 -3.438,14.539 -2.24,14.539Z" style="fill:#b7cddc;"/><path d="M24.904,120.981c4.187,3.615 12.311,4.537 11.54,0c-1.335,-7.855 2.193,-6.995 2.698,-7.284c-4.06,0.68 -20.401,-19.358 -14.244,-37.449c-1.199,0 -6.897,7.911 -6.897,9.11l2.271,16.895c0,0.579 3.334,1.088 4.926,5.47c1.706,4.693 -0.914,13.258 -0.294,13.258Z" style="fill:#b7cddc;"/><path d="M24.969,75.761c0.558,0.138 0.557,0.138 0.257,1.061c-3.718,11.749 1.623,25.438 9.464,33.512c1.377,1.417 3.241,3.043 4.381,2.876c0,0 0.403,0.016 0.522,0.292c0.273,0.633 -1.05,0.629 -1.784,1.063c-1.408,0.831 -1.226,2.799 -1.148,4.109c0.047,0.786 0.165,1.565 0.287,2.343c0.194,1.527 0.043,1.718 -0.739,2.484c-1.462,1.431 -3.934,1.209 -6.109,0.65c-2.026,-0.52 -3.876,-1.695 -5.524,-2.787c-0.425,-0.318 -0.238,-1.162 -0.134,-1.868c0.646,-4.184 1.693,-8.628 -0.009,-12.345c-0.811,-1.773 -2.335,-3.054 -4.051,-4.103c-0.346,-0.219 -0.601,-0.751 -0.601,-0.751c0,0 -2.272,-16.959 -2.272,-16.959c0.036,-0.881 0.681,-1.695 1.201,-2.521c1.354,-2.154 2.822,-4.242 4.638,-6.06c0.479,-0.479 0.822,-1.033 1.621,-0.996Zm-1.044,1.812c-2.067,2.157 -3.948,4.571 -5.233,7.261c-0.095,0.199 -0.197,0.51 -0.197,0.51l2.254,16.765c1.775,1.405 4.203,2.969 5.069,5.927c1.127,3.852 0.069,8.036 -0.466,12.052c-0.03,0.236 -0.053,0.583 -0.053,0.583c2.459,2.095 5.825,3.516 9.008,2.737c1.151,-0.282 1.79,-1.34 1.539,-3.07c-0.053,-0.383 -0.1,-0.767 -0.133,-1.153c-0.029,-0.339 -0.05,-0.678 -0.057,-1.018c-0.006,-0.257 -0.004,-0.514 0.007,-0.771c0.008,-0.193 0.022,-0.386 0.042,-0.578c0.123,-1.169 0.533,-2.45 1.603,-3.1c0,0 -1.474,-0.938 -2.473,-1.866c-4.438,-4.124 -7.581,-9.686 -9.6,-15.267c-2.193,-6.062 -2.99,-12.773 -1.237,-19.086c-0.024,0.025 -0.049,0.049 -0.073,0.074Zm1.076,42.926c-0.001,0 -0.001,0 0,0Zm-4.238,-18.268c0,-0.001 0,-0.001 0,0Z" style="fill:none;"/><path d="M59.368,59.638c0,1.198 4.859,-0.165 8.736,-2.634c-4.109,-2.034 5.034,-11.409 0,-8.931c-1.199,0 -6.285,3.172 -6.285,4.371l-2.451,7.194Z" style="fill:#b7cddc;"/><path d="M28.562,72.082c-11.014,-52.84 -9.094,-59.6 -5.672,-66.53l-4.902,6.575c-1.081,0.13 -1.803,6.1 -1.404,13.981l4.445,36.779c0.944,7.814 0.565,16.789 1.646,16.658c-0.41,-1.587 5.806,-3.618 5.887,-7.463Z" style="fill:#b7cddc;"/><path d="M26.893,2.417c4.115,0.106 6.655,4.881 7.666,8.452c1.873,6.617 1.164,13.804 2.542,20.508c1.489,7.242 4.058,14.252 7.189,20.963c0,0 -0.323,0.577 -0.323,0.577l-1.444,0.68c0,0 -0.649,-0.116 -0.649,-0.116c-4.168,-8.87 -7.573,-18.394 -8.312,-28.199c-0.512,-6.792 0.048,-14.489 -4.255,-18.987c-3.777,-3.949 -10.562,4.305 -11.646,12.597c-2.373,18.156 9.568,37.738 5.247,55.11l-2.013,4.095l-0.966,0.323l-0.323,-0.966c1.221,-3.021 0.69,-2.824 1.027,-4.443c3.337,-16.636 -7.031,-34.015 -5.753,-52.501c0.419,-6.066 2.643,-12.148 7.368,-16.2c1.315,-1.128 2.769,-1.909 4.645,-1.893Z" style="fill:#0d5889;"/><path d="M60.413,0.991c6.76,0.11 7.947,10.839 6.136,21.012c-1.785,10.028 -4.854,19.979 -3.343,30.131l-0.46,0.419c0,0 -2.182,0.08 -2.182,0.08c-0.037,-0.206 -0.069,-0.413 -0.101,-0.62c-1.993,-13.772 5.211,-27.978 4.523,-40.976c-0.146,-2.748 -0.513,-5.888 -2.787,-7.075c-4.006,-2.089 -9.627,2.507 -11.335,7.196c-4.089,11.225 0.319,24.544 -3.299,36.06c-0.598,1.906 -1.584,3.706 -2.947,5.124c-0.409,0.135 -0.548,0.2 -0.792,0.31l-1.066,-0.006l0.049,-1.165c0.702,-1.884 1.745,-2.903 2.36,-4.825c3.835,-11.996 -1.315,-25.827 3.766,-37.552c1.973,-4.553 6.561,-8.138 11.478,-8.113Z" style="fill:#0d5889;"/><path d="M49.216,51.983c2.284,0.022 4.564,0.294 6.758,0.906c0,0 1.022,1.612 1.022,1.612l-1.572,0.882c-0.907,-0.256 -2.555,-0.612 -3.927,-0.749c-6.989,-0.698 -13.824,1.615 -20.579,3.553l-2.122,0.515l-1.413,-0.652c0.628,-1.155 0.86,-1.363 0.86,-1.363c0.62,-0.218 1.406,-0.501 1.406,-0.501c6.387,-2.078 12.822,-4.215 19.567,-4.203Z" style="fill:#0d5889;"/><path d="M67.244,55.699c5.382,0.179 7.01,7.784 5.664,13.319c-1.385,5.7 -5.618,10.024 -12.027,11.337c-3.642,0.728 -7.555,0.719 -9.819,4.99c-3.378,6.497 -9.765,11.34 -17.741,9.289c0,0 0.426,-2.223 0.426,-2.223c0,0 -0.147,-0.499 0.765,-0.297c5.165,1.1 10.595,-1.429 13.167,-6.232c1.382,-2.636 2.559,-5.214 5.822,-6.521c5.844,-2.341 13.283,-1.277 16.096,-8.626c1.271,-3.321 2.075,-7.144 0.579,-10.349c-2.198,-4.711 -10.743,0.727 -15.243,2.272c-5.595,1.921 -12.226,1.849 -16.826,4.489c-4.251,2.44 -7.024,6.167 -11.909,9.341c-2.209,1.45 -4.394,3.03 -5.702,5.348c-4.592,8.135 1.099,18.356 5.389,24.442l0.242,0.973l-0.177,1.122c-1.303,-0.206 -1.698,-0.342 -1.698,-0.342c-0.754,-0.992 -1.8,-2.37 -1.8,-2.37c-5.76,-7.935 -8.886,-18.903 -3.31,-26.481c2.781,-3.779 7.411,-5.57 10.844,-8.525c3.143,-2.705 5.981,-5.904 9.973,-7.137c5.277,-1.63 10.895,-1.829 16.05,-4.136c3.665,-1.657 7.251,-3.746 11.235,-3.683Z" style="fill:#0d5889;"/><path d="M48.634,87.585c1.355,0.695 0.174,-0.161 1.533,1.011c1.638,1.412 3.338,3.679 3.338,3.679l-1.584,1.085c-0.549,-0.023 1.372,1.393 -3.117,-3.006c-1.213,-1.199 -1.238,-1.847 -1.238,-1.847l0.073,-0.995c0.332,0.025 0.664,0.049 0.995,0.073Z" style="fill:#0d5889;"/><path d="M71.6,45.721c4.221,0.05 8.486,2.472 9.037,7.17c1.001,8.523 -4.386,16.416 -8.217,23.868c-0.579,1.108 -1.219,2.184 -1.943,3.199c-0.28,0.393 -0.572,0.777 -0.878,1.15c-2.2,2.683 -5.322,5.014 -9.084,4.726c-1.993,-0.152 -3.973,-1.289 -4.734,-3.196c0,0 -0.07,-1.014 0.033,-1.688l0.876,-1.05c0,0 1.483,1.486 1.706,1.92c1.638,3.046 6.868,0.483 9.459,-2.849c0.517,-0.664 0.988,-1.363 1.423,-2.083c4.842,-8.021 10.473,-17.78 8.612,-24.797c-0.917,-3.455 -5.771,-4.18 -8.595,-3.65c-5.219,0.979 -7.634,7.167 -10.568,12.375c0,0 -0.627,0.337 -1.986,-1.033c0.686,-1.357 1.542,-3.33 1.542,-3.33c2.615,-5.382 6.481,-10.587 13.006,-10.73c0.156,-0.002 0.155,-0.002 0.311,-0.002Z" style="fill:#0d5889;"/><path d="M73.514,73.682c0,0 0.561,3.38 0.845,6.848c0,0 0.479,7.444 0.124,11.936c-0.639,8.082 -3.949,16.069 -11.422,21.162c-1.639,1.117 -3.456,2.098 -5.436,2.238c0,0 -1.7,-1.246 -1.7,-1.246c0,0 1.202,-1.243 1.202,-1.243c0.388,-0.292 0.514,-0.203 0.719,-0.241c9.992,-1.955 14.555,-15.989 14.31,-27.697c-0.074,-3.508 -0.298,-7.023 -0.42,-10.544c-0.024,-0.736 0.209,-1.126 0.209,-1.126l0.741,-0.828c0.276,0.247 0.552,0.494 0.828,0.741Z" style="fill:#0d5889;"/><path d="M26.115,106.677c1.383,4.865 1.739,10.571 -0.289,15.122l-1.656,0.619c0,0 -0.766,-1.294 -0.487,-1.953c1.559,-3.816 1.175,-8.275 0.411,-12.568c-0.203,-1.088 0.184,-0.992 0.184,-0.992l1.458,-0.336c0.126,0.036 0.253,0.072 0.379,0.108Z" style="fill:#0d5889;"/><path d="M63.414,112.221c0.005,0.016 0.358,1.004 0.358,1.004c-0.229,2.703 -0.797,5.455 -0.165,8.058c0,0 -0.895,1.549 -0.895,1.549c0,0 -1.003,-0.605 -1.504,-0.907c-0.749,-2.941 -0.284,-6.058 0.272,-8.99c0,0 0.596,-0.873 0.596,-0.873l0.748,-0.589c0.196,0.249 0.393,0.498 0.59,0.748Z" style="fill:#0d5889;"/></g></svg>