<?xml version="1.0" encoding="UTF-8" standalone="no"?><!DOCTYPE svg PUBLIC "-//W3C//DTD SVG 1.1//EN" "http://www.w3.org/Graphics/SVG/1.1/DTD/svg11.dtd"><svg width="100%" height="100%" viewBox="0 0 101 121" version="1.1" xmlns="http://www.w3.org/2000/svg" xmlns:xlink="http://www.w3.org/1999/xlink" xml:space="preserve" xmlns:serif="http://www.serif.com/" style="fill-rule:evenodd;clip-rule:evenodd;stroke-linejoin:round;stroke-miterlimit:2;"><rect id="_3-fingers" serif:id="3 fingers" x="0.032" y="0.517" width="100" height="120" style="fill:none;"/><clipPath id="_clip1"><rect x="0.032" y="0.517" width="100" height="120"/></clipPath><g clip-path="url(#_clip1)"><path d="M53.85,46.976c-12.219,-21.734 -13.89,-42.737 -24.162,-38.854c-4.498,1.7 -7.487,6.775 -5.875,12.79c5.916,13.915 10.641,17.07 14.849,44.735c0.259,1.702 0.738,14.487 -5.168,12.274c-7.457,-2.794 -7.641,-7.181 -12.14,-8.134c-11.536,-2.444 -19.203,0.87 -17.622,7.003c1.437,5.579 11.821,10.248 20.512,20.27c4.409,6.243 9.95,5.381 16.477,12.419l0.126,11.684l36.831,0l0.144,-11.424c9.297,-7.857 14.998,-15.969 12.177,-36.479c5.243,-19.368 0.65,-43.827 -17.36,-23.622c-1.72,-2.607 -3.673,-13.765 -6.86,-39.211c-1.172,-9.356 -12.452,-10.138 -15.068,-3.041c-1.244,3.372 1.922,16.594 4.524,22.74c2.218,5.236 0.206,14.379 -1.385,16.85Z" style="fill:#fff;"/><path d="M57.871,2.165c4.207,0.159 7.726,3.653 8.365,7.974c1.569,11.208 2.597,22.486 4.986,33.442c0.378,1.729 0.758,3.47 1.459,5.087l0.057,0.126c3.871,-4.222 9.14,-9.553 14.432,-6.43c3.313,1.955 4.414,6.102 4.992,10.284c0.927,6.722 0.158,13.647 -1.566,20.281c0,0 0.195,2.5 0.363,4.435c0.742,8.5 -0.082,17.506 -5.069,24.629c-2.094,2.992 -4.743,5.555 -7.532,7.936c0,0 -0.189,11.24 -0.189,11.24c0,0 -0.098,0.434 -0.491,0.485l-36.831,0c-0.281,-0.036 -0.45,-0.192 -0.492,-0.486l-0.124,-11.492c-4.827,-5.161 -12.567,-6.968 -16.374,-12.311c-4.22,-4.837 -9.329,-8.774 -14.306,-12.872c-2.477,-2.061 -5.178,-4.184 -6.17,-7.156c-0.729,-2.182 -0.117,-4.788 1.661,-6.304c3.919,-3.343 10.186,-2.928 15.6,-1.891c3.62,0.694 5.887,4.283 9.493,6.582c0.908,0.579 1.873,1.066 2.868,1.476c0.771,0.317 1.593,0.638 2.379,0.399c1.85,-0.56 2.23,-2.859 2.524,-4.437c0.082,-0.435 0.146,-0.872 0.199,-1.31c0.298,-2.463 0.258,-4.943 -0.126,-7.407c-1.578,-9.955 -3.654,-19.92 -7.829,-29.075c-2.19,-4.801 -4.724,-9.432 -6.789,-14.264l-0.024,-0.069c-1.549,-5.889 1.802,-13.254 8.135,-13.847c3.843,-0.36 6.684,3.646 8.501,7.271c3.845,7.671 6.359,15.934 9.968,23.744c1.136,2.459 2.346,4.882 3.637,7.263l0.262,0.479c1.397,-3.077 1.877,-6.524 1.886,-9.936c0.005,-2.15 -0.376,-4.27 -1.193,-6.299c-0.126,-0.321 -0.126,-0.32 -0.251,-0.642c-2.366,-6.289 -4.326,-13.02 -4.342,-19.445c-0.011,-3.945 3.723,-7.537 7.931,-7.46Zm-0.318,0.981c-3.443,0.07 -6.64,2.649 -6.63,6.477c0.019,6.988 2.178,14.061 4.819,20.441c0.258,0.647 0.273,0.737 0.373,1.085c1.292,4.507 0.634,9.535 -0.891,13.963c-0.301,0.873 -0.919,2.064 -0.919,2.064c-0.442,0.706 -1.042,-0.236 -1.451,-0.982c-5.099,-9.311 -8.44,-19.527 -12.717,-29.081c-1.761,-3.936 -3.822,-8.619 -7.709,-8.949c-5.262,-0.447 -9.751,6.198 -8.176,12.485l0.027,0.103c3.037,7.108 7.013,13.805 9.529,21.108c2.568,7.453 4.029,15.211 5.242,23.068c0.583,3.78 0.472,8.132 -1.072,11.347c-0.832,1.733 -2.706,2.899 -5.18,1.903c-2.985,-1.201 -5.443,-3.306 -7.802,-5.652c-1.934,-1.903 -4.718,-2.549 -7.337,-2.849c-3.414,-0.392 -6.964,-0.434 -10.127,0.969c-2.436,1.081 -4.193,3.767 -3.155,6.558c1.199,3.226 4.388,5.405 7.2,7.672c4.564,3.681 9.156,7.352 13.037,11.861c0.327,0.38 1.526,2.021 2.988,3.171c2.638,2.074 5.87,3.248 8.684,5.131c1.691,1.13 3.251,2.463 4.64,3.94c0.086,0.091 0.247,0.197 0.287,0.495l0.12,11.197l35.859,0l0.138,-10.938c0.039,-0.249 0.114,-0.301 0.174,-0.369c0.287,-0.243 0.572,-0.488 0.856,-0.734c4.382,-3.824 8.229,-8.338 10.125,-13.881c2.354,-6.878 1.98,-14.384 1.027,-21.423c0,0 0.486,-1.964 0.825,-3.613c1.629,-7.905 2.507,-16.592 -1.001,-23.428c-1.11,-2.163 -3.347,-4.059 -5.988,-3.669c-4.041,0.596 -7.356,4.023 -10.343,7.35c0,0 -0.433,0.491 -0.823,-0.129c-1.521,-2.423 -1.848,-5.535 -2.402,-8.401c-1.998,-10.33 -3.077,-20.871 -4.517,-31.157c-0.551,-3.727 -3.51,-6.983 -7.419,-7.131c-0.146,-0.002 -0.145,-0.002 -0.291,-0.002Z" style="fill:none;"/><path d="M82.476,74.414c-6.434,-6.407 -5.981,-18.942 -6.645,-18.942c-5.039,2.652 -2.954,16.768 -0.42,18.942c2.125,1.823 5.899,1.359 7.065,0Z" style="fill:#b7cddc;"/><path d="M75.868,54.981c0.616,0.047 0.648,0.795 0.759,1.626c0.815,6.414 1.868,13.112 6.198,17.46c0,0 1.069,0.751 -1.588,1.679c-2.592,0.904 -5.865,0.393 -7.242,-2.568c-2.153,-4.63 -2.542,-10.417 -0.927,-14.884c0.474,-1.31 1.273,-2.581 2.531,-3.255c0,0 -0.001,-0.062 0.269,-0.058Zm-0.292,1.24c-2.737,2.176 -2.595,6.505 -2.185,10.391c0.318,3.007 1.076,6.551 2.614,7.642c0.254,0.18 0.529,0.33 0.817,0.451c1.595,0.67 3.575,0.638 4.939,-0.308c0,0 -0.284,-0.32 -0.592,-0.692c-3.933,-4.799 -4.729,-11.971 -5.587,-17.463c-0.003,-0.017 0.002,-0.027 -0.006,-0.021Z" style="fill:none;"/><path d="M54.146,47.711c-0.085,0.367 -1.368,1.445 2.67,1.7c6.844,-18.018 -8.29,-38.366 -2.49,-45.35c-5.333,1.495 -4.175,5.8 -4.175,6.999l4.969,21.9c0,1.199 0.502,11.232 -0.974,14.751Z" style="fill:#b7cddc;"/><path d="M40.189,123.021c4.187,3.615 12.312,4.537 11.541,0c-1.335,-7.855 3.622,-10.514 4.127,-10.803c-1.779,-0.184 -19.241,-6.029 -28.285,-16.369c-9.928,-11.352 -22.6,-19.471 -22.873,-16.766c8.786,6.036 15.072,12.43 19.753,19.053c0,0.578 11.91,8.674 16.032,11.627c4.059,2.908 -0.915,13.258 -0.295,13.258Z" style="fill:#b7cddc;"/><path d="M5.484,78.069c2.562,0.113 4.908,2.039 7.313,3.723c5.955,4.168 11.065,9.449 16.004,14.675c6.939,7.275 16.295,12.111 25.84,14.948c0.563,0.167 1.367,0.335 1.367,0.335c1.019,0.441 -0.12,0.919 -0.981,1.632c-2.685,2.223 -3.354,6.124 -2.794,9.675c0.16,1.258 -0.021,1.33 -0.207,1.732c-1.019,2.204 -4.613,2.071 -7.425,1.177c-1.679,-0.535 -3.284,-1.36 -4.629,-2.485c-0.163,-0.136 -0.635,0.222 -0.109,-1.574c0.878,-2.946 2.053,-5.877 1.686,-9.045c-0.15,-1.293 -0.834,-2.334 -2.208,-3.308c-4.924,-3.471 -10.098,-6.61 -14.687,-10.499c-0.301,-0.255 -0.646,-0.696 -0.646,-0.696c-5.287,-7.436 -12.099,-13.697 -19.589,-18.872c0,0 -0.257,-0.289 -0.185,-0.604c0.122,-0.534 0.591,-0.829 1.25,-0.814Zm0.314,1.178c7.303,5.153 13.886,11.333 19.055,18.604c0.155,0.264 0.209,0.256 0.325,0.358c1.478,1.291 3.136,2.394 4.749,3.542c3.614,2.573 7.296,5.033 10.897,7.652c2.09,1.582 1.898,4.811 1.51,7.044c-0.083,0.477 -0.182,0.951 -0.292,1.423c-0.392,1.679 -0.984,3.085 -1.392,4.897c2.487,2.061 5.936,3.354 8.859,2.7c0.259,-0.057 0.514,-0.138 0.753,-0.255c0.162,-0.079 0.316,-0.175 0.453,-0.291c0.596,-0.504 0.595,-1.377 0.47,-2.193c-0.026,-0.183 -0.026,-0.183 -0.05,-0.367c-0.444,-3.695 0.579,-7.621 3.469,-9.901c0,0 -0.226,-0.09 -1.084,-0.365c-9.547,-3.137 -18.813,-7.904 -25.546,-15.071c-5.964,-6.349 -11.984,-12.832 -19.766,-16.941c-0.861,-0.455 -1.667,-0.921 -2.663,-1.025c0,0 0.155,0.121 0.253,0.189Zm34.529,43.303c-0.026,-0.01 -0.007,-0.002 0,0Zm-0.041,-0.011c-0.112,-0.025 -0.029,-0.004 0,0Zm-15.344,-24.447c-0.012,-0.135 -0.008,-0.046 0,0Z" style="fill:none;"/><path d="M39.969,80.339c12.76,-18.125 -17.34,-62.349 -13.919,-69.279l-2.874,4.321c-1.081,0.13 0.293,5.949 2.409,10.737l4.693,8.801c6.955,10.829 4.906,13.643 6.624,18.486c0.945,7.815 1.425,16.832 -1.103,27.009c3.546,0.454 2.542,0.161 4.17,-0.075Z" style="fill:#b7cddc;"/><path d="M60.202,87.784c-1.08,-0.401 -1.6,-1.292 -2.491,-1.818c-3.063,-1.807 -6.363,-3.096 -9.798,-3.828l-1.31,-0.091c-0.621,-0.083 -1.244,-0.154 -1.868,-0.221c-1.63,-0.167 -1.627,-0.165 -2.256,-0.17c-2.312,-0.32 -3.054,-0.295 -4.173,-0.451c-2.187,-0.306 -4.426,-0.693 -6.236,-1.814c-2.793,-1.729 -4.621,-4.566 -7.318,-6.336c-1.349,-0.886 -2.355,-1.319 -4.189,-2.234l-0.072,-0.035c-4.212,-1.554 -9.123,-2.028 -13.155,0.965c-0.197,0.147 -0.39,0.301 -0.575,0.462c-0.15,0.13 -0.295,0.265 -0.434,0.405c-1.159,1.163 -1.952,2.968 -1.199,4.628c1.847,4.074 7.092,5.719 10.835,9.577c0.108,0.109 0.215,0.217 0.324,0.325c2.873,2.829 6.062,5.448 8.421,8.624c3.73,5.02 7.033,6.71 10.424,8.896c2.447,1.577 4.976,3.079 7.702,4.054l1.361,1.699l-1.136,0.585c-2.371,0.53 -5.495,-1.707 -8.363,-3.487c-3.84,-2.384 -7.631,-4.957 -10.758,-8.2c-1.38,-1.431 -2.36,-3.28 -3.829,-4.786c-3.456,-3.543 -6.592,-6.81 -11.882,-10.542c-3.479,-2.48 -8,-5.685 -5.376,-10.984c2.257,-4.558 8.165,-6.414 12.701,-5.992c2.189,0.204 4.296,0.883 6.396,1.5c0.517,0.157 0.516,0.16 0.516,0.16c3.316,1.421 6.104,3.686 8.711,6.339c2.375,2.383 5.998,3.269 9.877,3.789l1.665,0.072l1.308,0.211c0,0 4.792,0.468 6.095,0.714c4.641,0.874 9.93,2.695 12.013,6.428l0.036,0.756l-0.539,1.402c0,0 -1.023,-0.368 -1.428,-0.602Z" style="fill:#0d5889;"/><path d="M52.468,48.277c-4.819,-7.777 -8.095,-16.371 -10.603,-25.261c-1.975,-6.908 -5.227,-15.579 -11.976,-13.693c-5.67,1.585 -6.39,9.73 -2.291,17.394c6.618,12.372 12.338,25.458 11.838,41.373c-0.096,3.045 -0.404,6.11 -1.59,8.877c0,0 -1.353,1.713 -1.353,1.713l-0.984,0.2c0,0 1.27,-5.683 1.477,-9.52c0.672,-12.453 -2.367,-24.913 -8.65,-36.033c-3.883,-6.828 -9.056,-14.557 -5.111,-21.672c2.609,-4.706 9.569,-6.649 14.02,-2.978c5.331,4.397 6.627,12.199 8.54,18.659c2.045,6.793 5.374,13.148 8.924,19.314l0.217,0.704l-0.325,1.801c0,0 -1.471,-0.343 -2.133,-0.878Z" style="fill:#0d5889;"/><path d="M71.602,50.85c0,0 -2.255,-4.434 -3.229,-8.84c-2.277,-10.306 -0.344,-21.389 -3.848,-31.565c-1.073,-3.115 -3.043,-6.254 -6.055,-6.733c-4.766,-0.757 -8.2,4.447 -6.189,11.994c2.321,8.708 4.939,17.158 4.135,27.212l-0.536,3.779c0,0 -0.138,0.276 -0.464,1.331l-0.816,0.627l-0.641,-1.161c-0.223,-3.043 0.028,-3.762 0.13,-5.427c0.452,-7.949 -1.185,-15.673 -3.684,-23.588c-1.355,-4.355 -2.754,-9.262 -0.265,-13.297c3.157,-5.119 11.481,-5.634 15.378,1.035c4.528,7.75 3.782,17.305 4.261,25.109c0.4,6.288 1.222,12.661 4.2,18.237c0,0 -0.427,2.046 -0.427,2.046c0,0 -1.383,-0.475 -1.95,-0.759Z" style="fill:#0d5889;"/><path d="M58.826,51.688c1.833,0.016 3.664,0.104 5.496,0.182c0,0 1.291,1.334 1.291,1.334l-1.33,1.198c-0.851,-0.052 -1.701,-0.107 -2.552,-0.158c-4.973,-0.284 -10.037,-0.059 -14.708,2.088c0,0 -0.881,0.094 -0.881,0.094l-0.982,-0.306c0,0 0.654,-1.51 0.654,-1.51c0.198,-0.105 0.397,-0.208 0.596,-0.309c3.815,-1.907 8.151,-2.628 12.416,-2.613Z" style="fill:#0d5889;"/><path d="M83.832,41.154c8.839,0.18 11.241,15.368 8.462,26.448c-0.871,3.473 -2.09,7.594 -6.158,8.153c-6.247,0.859 -11.697,-7.098 -11.832,-14.085c-0.022,-1.121 0.046,-2.24 0.202,-3.35c0.184,-1.314 0.711,-3.227 0.711,-3.227c2.085,0.031 1.728,0.207 2.656,0.746c-1.525,5.932 -0.85,13.104 4.755,16.354c0.197,0.115 0.4,0.22 0.607,0.316c0.152,0.07 0.307,0.134 0.464,0.192c1.581,0.581 3.404,0.309 4.553,-1.969c3.559,-7.061 3.331,-16.448 0.61,-23.193c-0.684,-1.696 -1.989,-3.198 -3.795,-3.659c-3.779,-0.966 -7.317,2.136 -9.926,5.184c0,0 -0.406,0.347 -1.554,1.174l-1.009,0.125l-0.124,-1.009l0.325,-0.818c0.339,-1.153 0.244,-0.766 1.038,-1.741c2.534,-3.108 5.794,-5.661 10.015,-5.641Z" style="fill:#0d5889;"/><path d="M91.145,70.271c0.174,1.44 0.349,3.468 0.349,3.468c0.704,10.684 -0.279,21.988 -6.737,31.014c-2.409,3.368 -5.608,6.406 -9.698,7.3c-0.549,0.12 -0.883,-0.515 -0.883,-0.515l-0.081,-2.021c2.366,-0.853 9.125,-5.364 12.074,-13.18c3.072,-8.142 3.372,-17.335 2.805,-25.667l0.311,-0.449l1.492,-0.144c0.123,0.064 0.245,0.129 0.368,0.194Z" style="fill:#0d5889;"/><path d="M39.842,120.208c-0.29,-2.91 0.906,-6.164 -0.121,-9.45c-0.482,-1.543 -0.142,-1.004 -0.08,-1.366l0.291,-1.023l1.023,0.291c0.743,0.361 0.453,-0.221 0.854,0.726c1.411,3.337 1.378,7.407 0.477,10.858c-0.126,0.457 -0.338,0.542 -0.509,0.766l-1.306,0.693c0,0 -0.612,-1.066 -0.629,-1.495Z" style="fill:#0d5889;"/><path d="M79.068,110.048c0.186,3.525 -0.411,7.152 0.936,10.467c0,0 -2.38,0.997 -2.38,0.997c-1.438,-3.505 -0.833,-7.534 -0.878,-11.39l2.105,-0.095c0.072,0.007 0.145,0.014 0.217,0.021Z" style="fill:#0d5889;"/></g></svg>